<?xml version="1.0" encoding="UTF-8"?>
<!DOCTYPE svg PUBLIC "-//W3C//DTD SVG 1.1//EN" "http://www.w3.org/Graphics/SVG/1.1/DTD/svg11.dtd">
<svg xmlns="http://www.w3.org/2000/svg" version="1.1" width="626px" height="626px" style="shape-rendering:geometricPrecision; text-rendering:geometricPrecision; image-rendering:optimizeQuality; fill-rule:evenodd; clip-rule:evenodd" xmlns:xlink="http://www.w3.org/1999/xlink">
<g><path style="opacity:0.004" fill="#fefefe" d="M 98.5,78.5 C 241.5,78.5 384.5,78.5 527.5,78.5C 527.5,221.5 527.5,364.5 527.5,507.5C 384.5,507.5 241.5,507.5 98.5,507.5C 98.5,364.5 98.5,221.5 98.5,78.5 Z M 323.5,81.5 C 324.947,80.1148 325.947,80.4482 326.5,82.5C 325.609,81.8902 324.609,81.5569 323.5,81.5 Z M 326.5,82.5 C 328.19,82.8564 329.19,83.8564 329.5,85.5C 327.5,85.5 326.5,84.5 326.5,82.5 Z M 321.5,84.5 C 320.833,85.8333 319.833,86.8333 318.5,87.5C 318.5,85.5 319.5,84.5 321.5,84.5 Z M 329.5,85.5 C 331.144,85.8102 332.144,86.8102 332.5,88.5C 330.856,88.1898 329.856,87.1898 329.5,85.5 Z M 317.5,88.5 C 317.5,89.1667 317.5,89.8333 317.5,90.5C 316.395,91.6005 315.062,92.2671 313.5,92.5C 314.5,90.8333 315.833,89.5 317.5,88.5 Z M 332.5,88.5 C 334.587,89.5846 335.92,91.2512 336.5,93.5C 335.167,92.5 333.833,91.5 332.5,90.5C 332.5,89.8333 332.5,89.1667 332.5,88.5 Z M 313.5,92.5 C 312.431,94.9687 311.098,97.3021 309.5,99.5C 308.833,99.5 308.167,99.5 307.5,99.5C 309.155,96.847 311.155,94.5136 313.5,92.5 Z M 337.5,94.5 C 340.243,96.2393 342.243,98.5726 343.5,101.5C 341.5,99.8333 339.5,98.1667 337.5,96.5C 337.5,95.8333 337.5,95.1667 337.5,94.5 Z M 306.5,100.5 C 306.5,101.167 306.5,101.833 306.5,102.5C 304.833,103.833 303.167,105.167 301.5,106.5C 302.419,103.911 304.086,101.911 306.5,100.5 Z M 344.5,102.5 C 346.5,103.167 347.833,104.5 348.5,106.5C 348.167,106.5 347.833,106.5 347.5,106.5C 345.738,105.738 344.738,104.404 344.5,102.5 Z M 301.5,106.5 C 301.5,107.167 301.5,107.833 301.5,108.5C 300.167,109.5 298.833,110.5 297.5,111.5C 298.08,109.251 299.413,107.585 301.5,106.5 Z M 349.5,108.5 C 351.833,108.833 353.167,110.167 353.5,112.5C 351.833,111.5 350.5,110.167 349.5,108.5 Z M 297.5,111.5 C 297.167,112.5 296.5,113.167 295.5,113.5C 295.5,112.167 296.167,111.5 297.5,111.5 Z M 353.5,112.5 C 356.243,114.239 358.243,116.573 359.5,119.5C 356.757,117.761 354.757,115.427 353.5,112.5 Z M 294.5,114.5 C 293.752,116.332 292.752,117.999 291.5,119.5C 291.167,119.5 290.833,119.5 290.5,119.5C 290.67,116.796 292.003,115.129 294.5,114.5 Z M 290.5,119.5 C 289.5,121.167 288.167,122.5 286.5,123.5C 286.833,121.167 288.167,119.833 290.5,119.5 Z M 359.5,119.5 C 361.816,120.422 363.483,122.089 364.5,124.5C 361.833,123.833 360.167,122.167 359.5,119.5 Z M 285.5,124.5 C 284.92,126.749 283.587,128.415 281.5,129.5C 282.08,127.251 283.413,125.585 285.5,124.5 Z M 364.5,124.5 C 366.587,125.585 367.92,127.251 368.5,129.5C 366.413,128.415 365.08,126.749 364.5,124.5 Z M 280.5,130.5 C 280.267,132.062 279.6,133.395 278.5,134.5C 277.5,135.167 276.5,135.833 275.5,136.5C 275.167,136.5 274.833,136.5 274.5,136.5C 275.596,133.614 277.596,131.614 280.5,130.5 Z M 370.5,131.5 C 372.262,132.262 373.262,133.596 373.5,135.5C 372.5,134.833 371.5,134.167 370.5,133.5C 370.5,132.833 370.5,132.167 370.5,131.5 Z M 374.5,136.5 C 378.566,139.563 381.899,143.229 384.5,147.5C 383.279,146.972 382.113,146.305 381,145.5C 378.945,142.3 376.779,139.3 374.5,136.5 Z M 273.5,138.5 C 272.833,139.833 271.833,140.833 270.5,141.5C 270.5,139.5 271.5,138.5 273.5,138.5 Z M 327.5,144.5 C 326.542,144.047 325.708,143.381 325,142.5C 324.292,143.381 323.458,144.047 322.5,144.5C 324.167,137.833 325.833,137.833 327.5,144.5 Z M 269.5,142.5 C 269.5,142.833 269.5,143.167 269.5,143.5C 268.167,145.5 266.5,147.167 264.5,148.5C 265.419,145.911 267.086,143.911 269.5,142.5 Z M 322.5,144.5 C 321.551,146.777 320.218,148.777 318.5,150.5C 318.5,149.833 318.5,149.167 318.5,148.5C 319.5,146.833 320.833,145.5 322.5,144.5 Z M 328.5,145.5 C 330.25,146.659 331.25,148.326 331.5,150.5C 329.273,149.599 328.273,147.933 328.5,145.5 Z M 264.5,148.5 C 263.925,150.411 262.925,152.078 261.5,153.5C 260.833,153.5 260.167,153.5 259.5,153.5C 260.882,151.451 262.548,149.785 264.5,148.5 Z M 385.5,148.5 C 388.243,150.239 390.243,152.573 391.5,155.5C 388.757,153.761 386.757,151.427 385.5,148.5 Z M 331.5,150.5 C 334.044,151.708 335.378,153.708 335.5,156.5C 333.587,154.88 332.253,152.88 331.5,150.5 Z M 316.5,151.5 C 316.833,151.5 317.167,151.5 317.5,151.5C 317.378,154.292 316.044,156.292 313.5,157.5C 313.615,155.053 314.615,153.053 316.5,151.5 Z M 258.5,154.5 C 258.5,155.167 258.5,155.833 258.5,156.5C 257.599,157.29 256.932,158.29 256.5,159.5C 255.833,159.5 255.167,159.5 254.5,159.5C 255.08,157.251 256.413,155.585 258.5,154.5 Z M 391.5,155.5 C 393.833,156.5 395.5,158.167 396.5,160.5C 395.391,160.443 394.391,160.11 393.5,159.5C 392.4,158.395 391.733,157.062 391.5,155.5 Z M 313.5,157.5 C 313.573,159.027 312.906,160.027 311.5,160.5C 311.5,159.833 311.5,159.167 311.5,158.5C 312.167,158.167 312.833,157.833 313.5,157.5 Z M 336.5,157.5 C 337.167,157.833 337.833,158.167 338.5,158.5C 339.441,160.05 340.107,161.716 340.5,163.5C 337.956,162.292 336.622,160.292 336.5,157.5 Z M 311.5,160.5 C 311.573,162.027 310.906,163.027 309.5,163.5C 309.427,161.973 310.094,160.973 311.5,160.5 Z M 252.5,161.5 C 252.267,163.062 251.6,164.395 250.5,165.5C 250.167,165.5 249.833,165.5 249.5,165.5C 249.738,163.596 250.738,162.262 252.5,161.5 Z M 397.5,162.5 C 399.833,162.833 401.167,164.167 401.5,166.5C 401.167,164.167 399.833,162.833 397.5,162.5 Z M 309.5,163.5 C 308.551,165.777 307.218,167.777 305.5,169.5C 305.5,168.833 305.5,168.167 305.5,167.5C 306.5,165.833 307.833,164.5 309.5,163.5 Z M 340.5,163.5 C 342.326,165.147 343.66,167.147 344.5,169.5C 342.178,168.198 340.845,166.198 340.5,163.5 Z M 249.5,165.5 C 249.167,166.5 248.5,167.167 247.5,167.5C 247.5,166.167 248.167,165.5 249.5,165.5 Z M 401.5,166.5 C 404.243,168.239 406.243,170.573 407.5,173.5C 404.757,171.761 402.757,169.427 401.5,166.5 Z M 246.5,168.5 C 246.573,170.027 245.906,171.027 244.5,171.5C 244.285,169.821 244.952,168.821 246.5,168.5 Z M 344.5,169.5 C 347.044,170.708 348.378,172.708 348.5,175.5C 346.782,173.777 345.449,171.777 344.5,169.5 Z M 303.5,171.5 C 303.938,171.435 304.272,171.601 304.5,172C 303.643,172.689 302.977,173.522 302.5,174.5C 301.743,175.773 301.077,175.773 300.5,174.5C 301.167,173.167 302.167,172.167 303.5,171.5 Z M 407.5,173.5 C 409.816,174.422 411.483,176.089 412.5,178.5C 410.589,177.925 408.922,176.925 407.5,175.5C 407.5,174.833 407.5,174.167 407.5,173.5 Z M 241.5,174.5 C 240.299,176.909 238.633,178.909 236.5,180.5C 236.772,177.268 238.438,175.268 241.5,174.5 Z M 299.5,176.5 C 300.715,177.779 300.382,178.779 298.5,179.5C 298.557,178.391 298.89,177.391 299.5,176.5 Z M 349.5,176.5 C 350.167,176.833 350.833,177.167 351.5,177.5C 353.267,179.938 354.601,182.605 355.5,185.5C 352.759,183.025 350.759,180.025 349.5,176.5 Z M 412.5,178.5 C 414.914,179.911 416.581,181.911 417.5,184.5C 416.833,184.167 416.167,183.833 415.5,183.5C 414.075,182.078 413.075,180.411 412.5,178.5 Z M 298.5,179.5 C 298.5,180.833 297.833,181.5 296.5,181.5C 296.5,181.167 296.5,180.833 296.5,180.5C 297.167,180.167 297.833,179.833 298.5,179.5 Z M 236.5,180.5 C 235.5,182.167 234.167,183.5 232.5,184.5C 232.833,182.167 234.167,180.833 236.5,180.5 Z M 296.5,181.5 C 295.729,185.39 293.729,188.39 290.5,190.5C 291.5,188.5 292.5,186.5 293.5,184.5C 294.272,183.306 295.272,182.306 296.5,181.5 Z M 231.5,185.5 C 230.925,187.411 229.925,189.078 228.5,190.5C 227.833,190.5 227.167,190.5 226.5,190.5C 227.833,188.5 229.5,186.833 231.5,185.5 Z M 355.5,185.5 C 356.167,185.833 356.833,186.167 357.5,186.5C 357.5,186.833 357.5,187.167 357.5,187.5C 356.167,187.5 355.5,186.833 355.5,185.5 Z M 418.5,185.5 C 420.935,186.27 422.269,187.937 422.5,190.5C 420.413,189.415 419.08,187.749 418.5,185.5 Z M 357.5,188.5 C 359.796,189.733 361.13,191.733 361.5,194.5C 359.674,192.853 358.34,190.853 357.5,188.5 Z M 290.5,190.5 C 290.573,192.027 289.906,193.027 288.5,193.5C 288.427,191.973 289.094,190.973 290.5,190.5 Z M 226.5,191.5 C 225.833,194.167 224.167,195.833 221.5,196.5C 222.422,194.184 224.089,192.517 226.5,191.5 Z M 423.5,191.5 C 424.833,192.167 425.833,193.167 426.5,194.5C 424.5,194.5 423.5,193.5 423.5,191.5 Z M 288.5,193.5 C 288.727,195.933 287.727,197.599 285.5,198.5C 285.721,196.336 286.721,194.67 288.5,193.5 Z M 361.5,194.5 C 362.5,195.167 363.5,195.833 364.5,196.5C 365.11,197.391 365.443,198.391 365.5,199.5C 363.413,198.415 362.08,196.749 361.5,194.5 Z M 426.5,194.5 C 428.833,197.167 431.167,199.833 433.5,202.5C 429.774,201.047 427.441,198.381 426.5,194.5 Z M 220.5,197.5 C 219.92,199.749 218.587,201.415 216.5,202.5C 217.08,200.251 218.413,198.585 220.5,197.5 Z M 284.5,199.5 C 284.316,202.337 282.982,204.337 280.5,205.5C 280.845,202.802 282.178,200.802 284.5,199.5 Z M 365.5,199.5 C 366.89,200.899 367.89,202.566 368.5,204.5C 366.273,203.599 365.273,201.933 365.5,199.5 Z M 216.5,202.5 C 213.5,206.5 210.5,210.5 207.5,214.5C 206.833,214.5 206.167,214.5 205.5,214.5C 208.508,209.828 212.175,205.828 216.5,202.5 Z M 434.5,203.5 C 436.914,204.911 438.581,206.911 439.5,209.5C 437.086,208.089 435.419,206.089 434.5,203.5 Z M 368.5,204.5 C 370.874,206.539 372.874,208.872 374.5,211.5C 375.904,213.255 376.904,215.255 377.5,217.5C 373.338,213.999 370.338,209.665 368.5,204.5 Z M 279.5,206.5 C 280.043,206.56 280.376,206.893 280.5,207.5C 279.151,208.909 277.818,210.243 276.5,211.5C 276.75,209.326 277.75,207.659 279.5,206.5 Z M 439.5,209.5 C 441.833,211.167 443.833,213.167 445.5,215.5C 442.5,214.5 440.5,212.5 439.5,209.5 Z M 276.5,211.5 C 276.378,214.292 275.044,216.292 272.5,217.5C 273.34,215.147 274.674,213.147 276.5,211.5 Z M 204.5,215.5 C 204.5,216.167 204.5,216.833 204.5,217.5C 203.833,217.5 203.5,217.833 203.5,218.5C 202.833,218.833 202.167,219.167 201.5,219.5C 201.738,217.596 202.738,216.262 204.5,215.5 Z M 445.5,216.5 C 447.71,216.894 449.043,218.227 449.5,220.5C 448.391,220.443 447.391,220.11 446.5,219.5C 446.443,218.391 446.11,217.391 445.5,216.5 Z M 377.5,217.5 C 379.25,218.659 380.25,220.326 380.5,222.5C 378.273,221.599 377.273,219.933 377.5,217.5 Z M 271.5,218.5 C 271.25,220.674 270.25,222.341 268.5,223.5C 268.5,222.833 268.5,222.167 268.5,221.5C 269.167,221.5 269.5,221.167 269.5,220.5C 269.833,219.5 270.5,218.833 271.5,218.5 Z M 199.5,221.5 C 198.92,223.749 197.587,225.415 195.5,226.5C 195.731,223.937 197.065,222.27 199.5,221.5 Z M 450.5,221.5 C 452.914,222.911 454.581,224.911 455.5,227.5C 453.086,226.089 451.419,224.089 450.5,221.5 Z M 267.5,224.5 C 267.573,226.027 266.906,227.027 265.5,227.5C 265.427,225.973 266.094,224.973 267.5,224.5 Z M 382.5,224.5 C 384.25,225.659 385.25,227.326 385.5,229.5C 383.75,228.341 382.75,226.674 382.5,224.5 Z M 194.5,227.5 C 194.5,228.833 193.833,229.5 192.5,229.5C 192.833,228.5 193.5,227.833 194.5,227.5 Z M 455.5,227.5 C 457.833,229.167 459.833,231.167 461.5,233.5C 458.5,232.5 456.5,230.5 455.5,227.5 Z M 192.5,229.5 C 191.551,231.777 190.218,233.777 188.5,235.5C 187.167,236.5 185.833,237.5 184.5,238.5C 186.773,235.223 189.44,232.223 192.5,229.5 Z M 264.5,229.5 C 264.532,231.619 263.532,232.952 261.5,233.5C 261.738,231.596 262.738,230.262 264.5,229.5 Z M 386.5,230.5 C 388.727,231.401 389.727,233.067 389.5,235.5C 388.11,234.101 387.11,232.434 386.5,230.5 Z M 260.5,233.5 C 260.833,233.5 261.167,233.5 261.5,233.5C 261.068,234.71 260.401,235.71 259.5,236.5C 259.263,235.209 259.596,234.209 260.5,233.5 Z M 461.5,233.5 C 463.587,234.585 464.92,236.251 465.5,238.5C 463.003,237.871 461.67,236.204 461.5,233.5 Z M 389.5,235.5 C 391.641,237.122 393.308,239.122 394.5,241.5C 391.379,240.712 389.712,238.712 389.5,235.5 Z M 259.5,236.5 C 259.25,238.674 258.25,240.341 256.5,241.5C 256.5,241.167 256.5,240.833 256.5,240.5C 256.738,238.596 257.738,237.262 259.5,236.5 Z M 183.5,239.5 C 183.5,239.833 183.5,240.167 183.5,240.5C 182.5,242.167 181.167,243.5 179.5,244.5C 180.08,242.251 181.413,240.585 183.5,239.5 Z M 467.5,240.5 C 469.262,241.262 470.262,242.596 470.5,244.5C 468.738,243.738 467.738,242.404 467.5,240.5 Z M 254.5,242.5 C 254.833,242.5 255.167,242.5 255.5,242.5C 254.525,244.795 253.192,246.795 251.5,248.5C 251.654,246.03 252.654,244.03 254.5,242.5 Z M 394.5,242.5 C 394.833,242.5 395.167,242.5 395.5,242.5C 396.529,244.517 397.529,246.517 398.5,248.5C 396.178,247.198 394.845,245.198 394.5,242.5 Z M 178.5,245.5 C 178.5,246.167 178.5,246.833 178.5,247.5C 176.754,249.252 174.754,250.585 172.5,251.5C 174.167,249.167 176.167,247.167 178.5,245.5 Z M 471.5,245.5 C 475.542,248.631 478.875,252.298 481.5,256.5C 480.833,256.167 480.167,255.833 479.5,255.5C 477.194,252.527 474.527,249.86 471.5,247.5C 471.5,246.833 471.5,246.167 471.5,245.5 Z M 250.5,248.5 C 250.833,248.5 251.167,248.5 251.5,248.5C 251.5,250.5 250.5,251.5 248.5,251.5C 249.167,250.5 249.833,249.5 250.5,248.5 Z M 398.5,248.5 C 400.982,249.663 402.316,251.663 402.5,254.5C 400.782,252.777 399.449,250.777 398.5,248.5 Z M 172.5,251.5 C 172.288,254.712 170.621,256.712 167.5,257.5C 168.82,255.183 170.486,253.183 172.5,251.5 Z M 347.5,254.5 C 346.833,254.5 346.167,254.5 345.5,254.5C 331.5,254.5 317.5,254.5 303.5,254.5C 303.611,253.883 303.944,253.383 304.5,253C 318.167,252.333 331.833,252.333 345.5,253C 346.416,253.278 347.082,253.778 347.5,254.5 Z M 247.5,253.5 C 247.649,254.552 247.483,255.552 247,256.5C 243.146,261.569 239.313,266.569 235.5,271.5C 238.503,264.825 242.503,258.825 247.5,253.5 Z M 303.5,254.5 C 303.5,269.5 303.5,284.5 303.5,299.5C 289.167,299.5 274.833,299.5 260.5,299.5C 259.5,299.5 258.5,299.5 257.5,299.5C 257.611,298.883 257.944,298.383 258.5,298C 272.829,297.5 287.163,297.333 301.5,297.5C 300.85,282.794 301.517,268.461 303.5,254.5 Z M 347.5,254.5 C 348.496,268.657 348.829,282.99 348.5,297.5C 362.849,297.167 377.182,297.501 391.5,298.5C 391.376,299.107 391.043,299.44 390.5,299.5C 376.167,299.5 361.833,299.5 347.5,299.5C 347.5,299.167 347.5,298.833 347.5,298.5C 347.5,283.833 347.5,269.167 347.5,254.5 Z M 402.5,254.5 C 404.587,255.585 405.92,257.251 406.5,259.5C 404.065,258.73 402.731,257.063 402.5,254.5 Z M 167.5,257.5 C 166.581,260.089 164.914,262.089 162.5,263.5C 163.419,260.911 165.086,258.911 167.5,257.5 Z M 482.5,257.5 C 484.914,258.911 486.581,260.911 487.5,263.5C 485.5,262.167 483.833,260.5 482.5,258.5C 482.5,258.167 482.5,257.833 482.5,257.5 Z M 406.5,259.5 C 408.25,260.659 409.25,262.326 409.5,264.5C 407.273,263.599 406.273,261.933 406.5,259.5 Z M 487.5,263.5 C 489.914,264.911 491.581,266.911 492.5,269.5C 490.086,268.089 488.419,266.089 487.5,263.5 Z M 161.5,264.5 C 161.262,266.404 160.262,267.738 158.5,268.5C 158.738,266.596 159.738,265.262 161.5,264.5 Z M 409.5,264.5 C 411.935,266.271 413.602,268.604 414.5,271.5C 412.065,269.729 410.398,267.396 409.5,264.5 Z M 158.5,268.5 C 158.167,269.5 157.5,270.167 156.5,270.5C 156.5,269.167 157.167,268.5 158.5,268.5 Z M 492.5,269.5 C 494.984,271.8 496.984,274.467 498.5,277.5C 497.167,276.5 495.833,275.5 494.5,274.5C 493.833,272.833 493.167,271.167 492.5,269.5 Z M 156.5,270.5 C 156.5,271.167 156.5,271.833 156.5,272.5C 155.167,273.833 153.833,275.167 152.5,276.5C 152.845,273.802 154.178,271.802 156.5,270.5 Z M 414.5,271.5 C 416.547,273.55 418.214,275.883 419.5,278.5C 416.636,276.977 414.969,274.643 414.5,271.5 Z M 234.5,272.5 C 234.727,274.933 233.727,276.599 231.5,277.5C 231.5,276.833 231.5,276.167 231.5,275.5C 232.728,274.694 233.728,273.694 234.5,272.5 Z M 152.5,276.5 C 152.5,277.833 151.833,278.5 150.5,278.5C 150.833,277.5 151.5,276.833 152.5,276.5 Z M 231.5,277.5 C 230.214,280.117 228.547,282.45 226.5,284.5C 227.01,281.326 228.677,278.992 231.5,277.5 Z M 498.5,277.5 C 500.314,279.764 502.147,282.097 504,284.5C 504.483,285.448 504.649,286.448 504.5,287.5C 501.498,284.839 499.498,281.505 498.5,277.5 Z M 150.5,278.5 C 152.031,279.925 151.698,280.591 149.5,280.5C 149.328,279.508 149.662,278.842 150.5,278.5 Z M 419.5,278.5 C 419.833,278.5 420.167,278.5 420.5,278.5C 421.167,280.167 421.833,281.833 422.5,283.5C 420.273,282.599 419.273,280.933 419.5,278.5 Z M 149.5,280.5 C 149.539,283.089 148.539,285.089 146.5,286.5C 146.654,284.03 147.654,282.03 149.5,280.5 Z M 422.5,283.5 C 425.323,284.992 426.99,287.326 427.5,290.5C 425.065,288.729 423.398,286.396 422.5,283.5 Z M 225.5,285.5 C 226.757,286.623 226.424,287.289 224.5,287.5C 224.328,286.508 224.662,285.842 225.5,285.5 Z M 146.5,286.5 C 145.416,289.004 144.083,291.337 142.5,293.5C 142.555,290.386 143.888,288.052 146.5,286.5 Z M 224.5,287.5 C 224.573,289.027 223.906,290.027 222.5,290.5C 222.285,288.821 222.952,287.821 224.5,287.5 Z M 504.5,287.5 C 507.063,291.17 509.063,295.17 510.5,299.5C 508.32,297.137 506.653,294.47 505.5,291.5C 504.766,290.292 504.433,288.959 504.5,287.5 Z M 222.5,290.5 C 222.715,292.179 222.048,293.179 220.5,293.5C 220.427,291.973 221.094,290.973 222.5,290.5 Z M 427.5,291.5 C 428.492,291.328 429.158,291.662 429.5,292.5C 430.6,293.605 431.267,294.938 431.5,296.5C 429.413,295.415 428.08,293.749 427.5,291.5 Z M 142.5,293.5 C 142.5,294.167 142.5,294.833 142.5,295.5C 141.559,297.05 140.893,298.716 140.5,300.5C 138.01,303.626 136.677,307.292 136.5,311.5C 135.603,314.164 134.27,316.498 132.5,318.5C 134.303,309.397 137.637,301.063 142.5,293.5 Z M 431.5,296.5 C 433.25,297.659 434.25,299.326 434.5,301.5C 432.273,300.599 431.273,298.933 431.5,296.5 Z M 217.5,297.5 C 217.25,299.674 216.25,301.341 214.5,302.5C 214.75,300.326 215.75,298.659 217.5,297.5 Z M 510.5,299.5 C 513.048,302.996 514.381,306.996 514.5,311.5C 514.167,311.5 513.833,311.5 513.5,311.5C 513.167,310.167 512.833,308.833 512.5,307.5C 511.629,304.888 510.963,302.221 510.5,299.5 Z M 435.5,302.5 C 437.822,303.802 439.155,305.802 439.5,308.5C 437.674,306.853 436.34,304.853 435.5,302.5 Z M 213.5,303.5 C 211.836,306.299 210.169,308.966 208.5,311.5C 209.038,309.883 209.371,308.216 209.5,306.5C 210.833,305.5 212.167,304.5 213.5,303.5 Z M 440.5,310.5 C 442.5,310.5 443.5,311.5 443.5,313.5C 442.167,312.833 441.167,311.833 440.5,310.5 Z M 208.5,311.5 C 208.262,313.404 207.262,314.738 205.5,315.5C 205.554,313.368 206.554,312.035 208.5,311.5 Z M 515.5,312.5 C 527.576,348.291 525.576,383.291 509.5,417.5C 511.859,409.431 514.193,401.431 516.5,393.5C 518.561,387.804 519.561,381.804 519.5,375.5C 521.104,374.713 521.771,373.38 521.5,371.5C 521.5,370.167 521.5,368.833 521.5,367.5C 522.623,361.481 522.623,355.481 521.5,349.5C 521.5,347.5 521.5,345.5 521.5,343.5C 521.598,341.447 520.931,339.78 519.5,338.5C 519.376,333.951 518.709,329.618 517.5,325.5C 517.324,322.273 516.657,319.273 515.5,316.5C 515.5,315.167 515.5,313.833 515.5,312.5 Z M 443.5,313.5 C 444.272,314.694 445.272,315.694 446.5,316.5C 446.5,317.167 446.5,317.833 446.5,318.5C 444.241,317.656 443.241,315.989 443.5,313.5 Z M 205.5,315.5 C 205.446,317.632 204.446,318.965 202.5,319.5C 202.554,317.368 203.554,316.035 205.5,315.5 Z M 132.5,318.5 C 131.5,325.833 130.5,333.167 129.5,340.5C 128.233,350.508 128.233,360.508 129.5,370.5C 129.5,372.167 129.5,373.833 129.5,375.5C 130.739,386.119 133.072,396.452 136.5,406.5C 134.449,403.457 132.949,400.124 132,396.5C 127.758,377.725 126.425,358.725 128,339.5C 128.821,332.217 130.321,325.217 132.5,318.5 Z M 446.5,318.5 C 449.339,320.358 451.006,323.025 451.5,326.5C 449.05,324.371 447.383,321.704 446.5,318.5 Z M 201.5,320.5 C 201.938,320.435 202.272,320.601 202.5,321C 200.024,324.145 197.69,327.312 195.5,330.5C 196.498,326.495 198.498,323.161 201.5,320.5 Z M 452.5,327.5 C 454.89,328.891 456.557,330.891 457.5,333.5C 458.6,334.605 459.267,335.938 459.5,337.5C 456.677,334.525 454.344,331.192 452.5,327.5 Z M 195.5,330.5 C 195.167,331.5 194.5,332.167 193.5,332.5C 193.5,331.167 194.167,330.5 195.5,330.5 Z M 192.5,332.5 C 192.833,332.5 193.167,332.5 193.5,332.5C 193.378,335.292 192.044,337.292 189.5,338.5C 189.975,336.216 190.975,334.216 192.5,332.5 Z M 460.5,338.5 C 462.218,340.223 463.551,342.223 464.5,344.5C 461.956,343.292 460.622,341.292 460.5,338.5 Z M 188.5,339.5 C 189.757,340.623 189.424,341.289 187.5,341.5C 187.328,340.508 187.662,339.842 188.5,339.5 Z M 187.5,341.5 C 187.573,343.027 186.906,344.027 185.5,344.5C 185.427,342.973 186.094,341.973 187.5,341.5 Z M 185.5,344.5 C 185.378,347.292 184.044,349.292 181.5,350.5C 182.253,348.12 183.587,346.12 185.5,344.5 Z M 302.5,344.5 C 302.833,344.5 303.167,344.5 303.5,344.5C 303.5,358.833 303.5,373.167 303.5,387.5C 317.657,388.496 331.99,388.829 346.5,388.5C 339.699,389.831 332.533,390.497 325,390.5C 317.454,390.484 309.954,390.151 302.5,389.5C 301.501,374.848 301.167,360.182 301.5,345.5C 286.83,345.667 272.163,345.5 257.5,345C 272.496,344.5 287.496,344.333 302.5,344.5 Z M 347.5,344.5 C 362.167,344.5 376.833,344.5 391.5,344.5C 377.343,345.496 363.01,345.829 348.5,345.5C 348.667,360.17 348.5,374.837 348,389.5C 347.5,374.504 347.333,359.504 347.5,344.5 Z M 465.5,345.5 C 468.069,348.961 470.403,352.628 472.5,356.5C 469.392,353.672 466.725,350.338 464.5,346.5C 464.624,345.893 464.957,345.56 465.5,345.5 Z M 180.5,351.5 C 180.346,353.97 179.346,355.97 177.5,357.5C 177.461,354.911 178.461,352.911 180.5,351.5 Z M 472.5,356.5 C 473.5,357.833 474.5,359.167 475.5,360.5C 476.167,363.167 476.833,365.833 477.5,368.5C 474.939,364.985 473.272,360.985 472.5,356.5 Z M 177.5,357.5 C 177.25,359.674 176.25,361.341 174.5,362.5C 174.5,362.167 174.5,361.833 174.5,361.5C 174.554,359.368 175.554,358.035 177.5,357.5 Z M 174.5,362.5 C 173.935,366.537 172.601,370.203 170.5,373.5C 170.196,372.85 169.863,372.183 169.5,371.5C 170.988,368.338 172.654,365.338 174.5,362.5 Z M 478.5,369.5 C 478.833,369.5 479.167,369.5 479.5,369.5C 481.611,374.945 482.944,380.611 483.5,386.5C 483.007,388.806 482.674,391.139 482.5,393.5C 480.989,396.005 479.655,398.672 478.5,401.5C 478.167,401.5 477.833,401.5 477.5,401.5C 479.163,396.185 480.83,390.852 482.5,385.5C 480.572,380.313 479.239,374.979 478.5,369.5 Z M 169.5,374.5 C 168.838,378.157 168.171,381.824 167.5,385.5C 168.383,391.146 170.05,396.48 172.5,401.5C 171.407,399.651 170.074,397.984 168.5,396.5C 168.672,395.508 168.338,394.842 167.5,394.5C 167.435,391.572 166.768,388.905 165.5,386.5C 165.5,385.833 165.5,385.167 165.5,384.5C 166.768,382.095 167.435,379.428 167.5,376.5C 168.167,375.833 168.833,375.167 169.5,374.5 Z M 476.5,402.5 C 476.5,403.167 476.5,403.833 476.5,404.5C 475.833,405.833 474.833,406.833 473.5,407.5C 473.75,405.326 474.75,403.659 476.5,402.5 Z M 173.5,403.5 C 174.906,403.973 175.573,404.973 175.5,406.5C 174.5,406.167 173.833,405.5 173.5,404.5C 173.5,404.167 173.5,403.833 173.5,403.5 Z M 175.5,407.5 C 178.833,408.833 181.167,411.167 182.5,414.5C 181.761,414.631 181.094,414.464 180.5,414C 178.946,411.713 177.279,409.546 175.5,407.5 Z M 471.5,409.5 C 470.92,411.749 469.587,413.415 467.5,414.5C 468.08,412.251 469.413,410.585 471.5,409.5 Z M 137.5,410.5 C 139.873,412.579 141.206,415.246 141.5,418.5C 139.203,416.377 137.87,413.71 137.5,410.5 Z M 183.5,415.5 C 186.089,416.419 188.089,418.086 189.5,420.5C 186.268,420.228 184.268,418.562 183.5,415.5 Z M 466.5,415.5 C 466.5,416.167 466.5,416.833 466.5,417.5C 465.833,417.5 465.167,417.5 464.5,417.5C 464.833,416.5 465.5,415.833 466.5,415.5 Z M 464.5,417.5 C 462.853,419.326 460.853,420.66 458.5,421.5C 459.802,419.178 461.802,417.845 464.5,417.5 Z M 509.5,417.5 C 508.532,420.1 507.199,422.434 505.5,424.5C 505.725,421.454 507.058,419.121 509.5,417.5 Z M 141.5,418.5 C 142.167,419.167 142.833,419.833 143.5,420.5C 143.5,421.5 143.5,422.5 143.5,423.5C 142.069,422.22 141.402,420.553 141.5,418.5 Z M 189.5,420.5 C 191.749,421.08 193.415,422.413 194.5,424.5C 192.251,423.92 190.585,422.587 189.5,420.5 Z M 458.5,421.5 C 458.5,422.167 458.5,422.833 458.5,423.5C 455.386,425.391 452.052,426.724 448.5,427.5C 451.798,425.515 455.131,423.515 458.5,421.5 Z M 143.5,423.5 C 146.068,425.081 147.401,427.414 147.5,430.5C 145.331,428.66 143.998,426.326 143.5,423.5 Z M 194.5,424.5 C 197.481,424.182 199.815,425.182 201.5,427.5C 199.297,427.396 197.297,426.73 195.5,425.5C 194.833,425.5 194.5,425.167 194.5,424.5 Z M 505.5,424.5 C 505.771,426.38 505.104,427.713 503.5,428.5C 503.66,426.847 504.326,425.514 505.5,424.5 Z M 201.5,427.5 C 203.565,427.953 205.232,428.953 206.5,430.5C 204.784,430.371 203.117,430.038 201.5,429.5C 201.5,428.833 201.5,428.167 201.5,427.5 Z M 448.5,427.5 C 446.74,429.559 444.406,430.892 441.5,431.5C 439.246,432.315 436.913,432.981 434.5,433.5C 433.287,433.747 432.62,434.414 432.5,435.5C 426.204,436.494 419.87,437.16 413.5,437.5C 406.535,438.341 399.535,438.674 392.5,438.5C 385.167,438.5 377.833,438.5 370.5,438.5C 339.167,438.5 307.833,438.5 276.5,438.5C 269.833,438.5 263.167,438.5 256.5,438.5C 249.465,438.674 242.465,438.341 235.5,437.5C 230.277,437.324 225.11,436.657 220,435.5C 218.624,435.316 217.791,434.649 217.5,433.5C 221.832,434.266 226.166,435.1 230.5,436C 293.167,437.984 355.834,437.984 418.5,436C 428.802,434.092 438.802,431.259 448.5,427.5 Z M 147.5,430.5 C 149.314,432.764 151.147,435.097 153,437.5C 154.009,439.025 154.509,440.692 154.5,442.5C 151.377,439.024 149.043,435.024 147.5,430.5 Z M 206.5,430.5 C 210.534,430.517 214.201,431.517 217.5,433.5C 213.466,433.483 209.799,432.483 206.5,430.5 Z M 501.5,430.5 C 501.88,432.698 501.213,434.365 499.5,435.5C 499.402,433.447 500.069,431.78 501.5,430.5 Z M 498.5,436.5 C 498.727,438.933 497.727,440.599 495.5,441.5C 495.75,439.326 496.75,437.659 498.5,436.5 Z M 495.5,441.5 C 495.727,443.933 494.727,445.599 492.5,446.5C 493.11,444.566 494.11,442.899 495.5,441.5 Z M 154.5,442.5 C 157.815,445.125 160.149,448.458 161.5,452.5C 158.677,449.525 156.344,446.192 154.5,442.5 Z M 492.5,446.5 C 492.5,447.833 491.833,448.5 490.5,448.5C 490.833,447.5 491.5,446.833 492.5,446.5 Z M 490.5,448.5 C 490.291,449.922 489.791,451.255 489,452.5C 488.31,453.738 487.81,453.738 487.5,452.5C 488.026,450.77 489.026,449.436 490.5,448.5 Z M 162.5,454.5 C 164.997,455.129 166.33,456.796 166.5,459.5C 164.413,458.415 163.08,456.749 162.5,454.5 Z M 486.5,454.5 C 487.332,456.725 486.332,458.058 483.5,458.5C 484.512,457.128 485.512,455.795 486.5,454.5 Z M 482.5,460.5 C 482.573,462.027 481.906,463.027 480.5,463.5C 480.427,461.973 481.094,460.973 482.5,460.5 Z M 167.5,461.5 C 169.5,461.5 170.5,462.5 170.5,464.5C 170.5,462.5 169.5,461.5 167.5,461.5 Z M 480.5,463.5 C 480.5,464.833 479.833,465.5 478.5,465.5C 478.833,464.5 479.5,463.833 480.5,463.5 Z M 170.5,465.5 C 172.027,465.427 173.027,466.094 173.5,467.5C 176.336,470.513 178.669,473.846 180.5,477.5C 176.82,473.817 173.486,469.817 170.5,465.5 Z M 478.5,465.5 C 478.155,468.198 476.822,470.198 474.5,471.5C 474.845,468.802 476.178,466.802 478.5,465.5 Z M 474.5,471.5 C 472.823,473.54 471.156,475.54 469.5,477.5C 469.893,475.716 470.559,474.05 471.5,472.5C 472.391,471.89 473.391,471.557 474.5,471.5 Z M 180.5,477.5 C 181.391,478.11 182.391,478.443 183.5,478.5C 183.5,479.167 183.5,479.833 183.5,480.5C 181.5,480.5 180.5,479.5 180.5,477.5 Z M 466.5,478.5 C 467.167,478.5 467.833,478.5 468.5,478.5C 467.215,480.452 465.549,482.118 463.5,483.5C 464.075,481.589 465.075,479.922 466.5,478.5 Z M 183.5,480.5 C 184.492,480.328 185.158,480.662 185.5,481.5C 185.5,481.833 185.5,482.167 185.5,482.5C 184.5,482.167 183.833,481.5 183.5,480.5 Z M 185.5,482.5 C 186.5,482.833 187.167,483.5 187.5,484.5C 186.167,484.5 185.5,483.833 185.5,482.5 Z M 187.5,484.5 C 188.167,484.5 188.833,484.5 189.5,484.5C 190.833,485.833 192.167,487.167 193.5,488.5C 190.802,488.155 188.802,486.822 187.5,484.5 Z M 462.5,484.5 C 460.469,486.522 458.135,488.189 455.5,489.5C 456.948,486.736 459.281,485.069 462.5,484.5 Z M 193.5,488.5 C 194.5,488.833 195.167,489.5 195.5,490.5C 194.167,490.5 193.5,489.833 193.5,488.5 Z M 455.5,489.5 C 455.047,490.458 454.381,491.292 453.5,492C 450.647,493.43 447.647,494.263 444.5,494.5C 447.979,492.597 451.646,490.93 455.5,489.5 Z M 195.5,490.5 C 198.912,491.042 201.912,492.375 204.5,494.5C 201.057,493.941 198.057,492.607 195.5,490.5 Z M 206.5,495.5 C 207.391,496.11 208.391,496.443 209.5,496.5C 212.561,497.726 215.728,498.726 219,499.5C 220.03,499.836 220.53,500.503 220.5,501.5C 215.098,499.98 209.764,498.146 204.5,496C 205.094,495.536 205.761,495.369 206.5,495.5 Z M 443.5,495.5 C 443.938,495.435 444.272,495.601 444.5,496C 439.861,498.601 434.861,500.101 429.5,500.5C 430.5,499.833 431.5,499.167 432.5,498.5C 436.223,497.703 439.89,496.703 443.5,495.5 Z M 429.5,500.5 C 429.53,501.497 429.03,502.164 428,502.5C 420.916,504.103 413.749,505.269 406.5,506C 351.5,506.667 296.5,506.667 241.5,506C 236.511,505.251 231.511,504.585 226.5,504C 224.277,503.434 222.277,502.6 220.5,501.5C 223.206,501.575 225.873,501.908 228.5,502.5C 232.814,503.275 237.147,503.941 241.5,504.5C 243.5,504.5 245.5,504.5 247.5,504.5C 297.805,505.653 348.138,505.82 398.5,505C 403.25,504.777 407.916,504.277 412.5,503.5C 415.545,503.492 418.545,503.159 421.5,502.5C 422.833,502.167 424.167,501.833 425.5,501.5C 425.833,501.5 426.167,501.5 426.5,501.5C 427.609,501.443 428.609,501.11 429.5,500.5 Z"/></g>
<g><path style="opacity:0.529" fill="#5cb6da" d="M 322.5,82.5 C 322.833,82.5 323.167,82.5 323.5,82.5C 322.687,85.9895 320.687,88.6562 317.5,90.5C 317.5,89.8333 317.5,89.1667 317.5,88.5C 318.167,88.5 318.5,88.1667 318.5,87.5C 319.833,86.8333 320.833,85.8333 321.5,84.5C 322.338,84.1583 322.672,83.4916 322.5,82.5 Z"/></g>
<g><path style="opacity:1" fill="#1d9ccb" d="M 323.5,81.5 C 324.609,81.5569 325.609,81.8902 326.5,82.5C 326.5,84.5 327.5,85.5 329.5,85.5C 329.856,87.1898 330.856,88.1898 332.5,88.5C 332.5,89.1667 332.5,89.8333 332.5,90.5C 333.419,93.0892 335.086,95.0892 337.5,96.5C 339.5,98.1667 341.5,99.8333 343.5,101.5C 343.5,102.167 343.833,102.5 344.5,102.5C 344.738,104.404 345.738,105.738 347.5,106.5C 347.389,107.117 347.056,107.617 346.5,108C 332.5,108.333 318.5,108.667 304.5,109C 303.057,110.067 301.724,111.234 300.5,112.5C 300.167,112.333 299.833,112.167 299.5,112C 300.823,111.184 301.489,110.017 301.5,108.5C 301.5,107.833 301.5,107.167 301.5,106.5C 303.167,105.167 304.833,103.833 306.5,102.5C 307.833,101.833 308.833,100.833 309.5,99.5C 311.098,97.3021 312.431,94.9687 313.5,92.5C 315.062,92.2671 316.395,91.6005 317.5,90.5C 320.687,88.6562 322.687,85.9895 323.5,82.5C 323.5,82.1667 323.5,81.8333 323.5,81.5 Z"/></g>
<g><path style="opacity:0.392" fill="#74c1df" d="M 332.5,90.5 C 333.833,91.5 335.167,92.5 336.5,93.5C 336.5,94.1667 336.833,94.5 337.5,94.5C 337.5,95.1667 337.5,95.8333 337.5,96.5C 335.086,95.0892 333.419,93.0892 332.5,90.5 Z"/></g>
<g><path style="opacity:0.118" fill="#a0d6e9" d="M 307.5,99.5 C 308.167,99.5 308.833,99.5 309.5,99.5C 308.833,100.833 307.833,101.833 306.5,102.5C 306.5,101.833 306.5,101.167 306.5,100.5C 307.167,100.5 307.5,100.167 307.5,99.5 Z"/></g>
<g><path style="opacity:1" fill="#19a0cb" d="M 347.5,106.5 C 347.833,106.5 348.167,106.5 348.5,106.5C 348.328,107.492 348.662,108.158 349.5,108.5C 350.5,110.167 351.833,111.5 353.5,112.5C 354.757,115.427 356.757,117.761 359.5,119.5C 360.167,122.167 361.833,123.833 364.5,124.5C 365.08,126.749 366.413,128.415 368.5,129.5C 368.5,130.167 368.833,130.5 369.5,130.5C 369.5,131.167 369.833,131.5 370.5,131.5C 370.5,132.167 370.5,132.833 370.5,133.5C 370.414,134.496 370.748,135.329 371.5,136C 356.167,136.333 340.833,136.667 325.5,137C 325.833,137.333 326.167,137.667 326.5,138C 325.234,138.309 324.067,138.809 323,139.5C 322.383,138.551 322.549,137.718 323.5,137C 308.133,137.154 293.133,136.321 278.5,134.5C 279.6,133.395 280.267,132.062 280.5,130.5C 281.167,130.5 281.5,130.167 281.5,129.5C 283.587,128.415 284.92,126.749 285.5,124.5C 285.833,124.5 286.167,124.5 286.5,124.5C 289.167,123.833 290.833,122.167 291.5,119.5C 292.752,117.999 293.752,116.332 294.5,114.5C 295.167,114.5 295.5,114.167 295.5,113.5C 296.5,113.167 297.167,112.5 297.5,111.5C 298.833,110.5 300.167,109.5 301.5,108.5C 301.489,110.017 300.823,111.184 299.5,112C 299.833,112.167 300.167,112.333 300.5,112.5C 301.724,111.234 303.057,110.067 304.5,109C 318.5,108.667 332.5,108.333 346.5,108C 347.056,107.617 347.389,107.117 347.5,106.5 Z"/></g>
<g><path style="opacity:0.388" fill="#7bc6e0" d="M 290.5,119.5 C 290.833,119.5 291.167,119.5 291.5,119.5C 290.833,122.167 289.167,123.833 286.5,124.5C 286.5,124.167 286.5,123.833 286.5,123.5C 288.167,122.5 289.5,121.167 290.5,119.5 Z"/></g>
<g><path style="opacity:1" fill="#1ca6cc" d="M 370.5,133.5 C 371.5,134.167 372.5,134.833 373.5,135.5C 373.5,136.167 373.833,136.5 374.5,136.5C 376.779,139.3 378.945,142.3 381,145.5C 382.113,146.305 383.279,146.972 384.5,147.5C 384.5,148.167 384.833,148.5 385.5,148.5C 386.757,151.427 388.757,153.761 391.5,155.5C 391.733,157.062 392.4,158.395 393.5,159.5C 393.414,160.496 393.748,161.329 394.5,162C 377.431,161.854 360.598,162.688 344,164.5C 341.724,162.693 341.557,161.193 343.5,160C 341.846,159.392 340.179,158.892 338.5,158.5C 337.833,158.167 337.167,157.833 336.5,157.5C 336.5,156.833 336.167,156.5 335.5,156.5C 335.378,153.708 334.044,151.708 331.5,150.5C 331.25,148.326 330.25,146.659 328.5,145.5C 328.5,144.833 328.167,144.5 327.5,144.5C 325.833,137.833 324.167,137.833 322.5,144.5C 320.833,145.5 319.5,146.833 318.5,148.5C 317.094,148.973 316.427,149.973 316.5,151.5C 314.615,153.053 313.615,155.053 313.5,157.5C 312.833,157.833 312.167,158.167 311.5,158.5C 310.188,159.145 309.188,160.145 308.5,161.5C 291.179,162.5 273.846,162.833 256.5,162.5C 256.5,161.5 256.5,160.5 256.5,159.5C 256.932,158.29 257.599,157.29 258.5,156.5C 259.833,155.833 260.833,154.833 261.5,153.5C 262.925,152.078 263.925,150.411 264.5,148.5C 266.5,147.167 268.167,145.5 269.5,143.5C 272.946,142.388 274.946,140.055 275.5,136.5C 276.5,135.833 277.5,135.167 278.5,134.5C 293.133,136.321 308.133,137.154 323.5,137C 322.549,137.718 322.383,138.551 323,139.5C 324.067,138.809 325.234,138.309 326.5,138C 326.167,137.667 325.833,137.333 325.5,137C 340.833,136.667 356.167,136.333 371.5,136C 370.748,135.329 370.414,134.496 370.5,133.5 Z M 327.5,144.5 C 326.542,144.047 325.708,143.381 325,142.5C 324.292,143.381 323.458,144.047 322.5,144.5C 324.167,137.833 325.833,137.833 327.5,144.5 Z M 322.5,144.5 C 321.551,146.777 320.218,148.777 318.5,150.5C 318.5,149.833 318.5,149.167 318.5,148.5C 319.5,146.833 320.833,145.5 322.5,144.5 Z M 328.5,145.5 C 330.25,146.659 331.25,148.326 331.5,150.5C 329.273,149.599 328.273,147.933 328.5,145.5 Z M 331.5,150.5 C 334.044,151.708 335.378,153.708 335.5,156.5C 333.587,154.88 332.253,152.88 331.5,150.5 Z M 316.5,151.5 C 316.833,151.5 317.167,151.5 317.5,151.5C 317.378,154.292 316.044,156.292 313.5,157.5C 313.615,155.053 314.615,153.053 316.5,151.5 Z M 313.5,157.5 C 313.573,159.027 312.906,160.027 311.5,160.5C 311.5,159.833 311.5,159.167 311.5,158.5C 312.167,158.167 312.833,157.833 313.5,157.5 Z"/></g>
<g><path style="opacity:0.239" fill="#72c6df" d="M 274.5,136.5 C 274.833,136.5 275.167,136.5 275.5,136.5C 274.946,140.055 272.946,142.388 269.5,143.5C 269.5,143.167 269.5,142.833 269.5,142.5C 270.167,142.5 270.5,142.167 270.5,141.5C 271.833,140.833 272.833,139.833 273.5,138.5C 274.338,138.158 274.672,137.492 274.5,136.5 Z"/></g>
<g><path style="opacity:0.004" fill="#fefefe" d="M 327.5,144.5 C 328.167,144.5 328.5,144.833 328.5,145.5C 328.273,147.933 329.273,149.599 331.5,150.5C 332.253,152.88 333.587,154.88 335.5,156.5C 336.167,156.5 336.5,156.833 336.5,157.5C 336.622,160.292 337.956,162.292 340.5,163.5C 340.845,166.198 342.178,168.198 344.5,169.5C 345.449,171.777 346.782,173.777 348.5,175.5C 348.5,176.167 348.833,176.5 349.5,176.5C 350.759,180.025 352.759,183.025 355.5,185.5C 355.5,186.833 356.167,187.5 357.5,187.5C 357.5,187.833 357.5,188.167 357.5,188.5C 358.34,190.853 359.674,192.853 361.5,194.5C 362.08,196.749 363.413,198.415 365.5,199.5C 365.273,201.933 366.273,203.599 368.5,204.5C 370.338,209.665 373.338,213.999 377.5,217.5C 377.273,219.933 378.273,221.599 380.5,222.5C 380.5,223.167 380.833,223.5 381.5,223.5C 381.5,224.167 381.833,224.5 382.5,224.5C 382.75,226.674 383.75,228.341 385.5,229.5C 385.5,230.167 385.833,230.5 386.5,230.5C 387.11,232.434 388.11,234.101 389.5,235.5C 389.712,238.712 391.379,240.712 394.5,241.5C 394.5,241.833 394.5,242.167 394.5,242.5C 394.845,245.198 396.178,247.198 398.5,248.5C 399.449,250.777 400.782,252.777 402.5,254.5C 402.731,257.063 404.065,258.73 406.5,259.5C 406.273,261.933 407.273,263.599 409.5,264.5C 410.398,267.396 412.065,269.729 414.5,271.5C 414.969,274.643 416.636,276.977 419.5,278.5C 419.273,280.933 420.273,282.599 422.5,283.5C 423.398,286.396 425.065,288.729 427.5,290.5C 427.5,290.833 427.5,291.167 427.5,291.5C 428.08,293.749 429.413,295.415 431.5,296.5C 431.273,298.933 432.273,300.599 434.5,301.5C 434.5,302.167 434.833,302.5 435.5,302.5C 436.34,304.853 437.674,306.853 439.5,308.5C 439.5,309.167 439.833,309.5 440.5,309.5C 440.5,309.833 440.5,310.167 440.5,310.5C 441.167,311.833 442.167,312.833 443.5,313.5C 443.241,315.989 444.241,317.656 446.5,318.5C 447.383,321.704 449.05,324.371 451.5,326.5C 451.5,327.167 451.833,327.5 452.5,327.5C 454.344,331.192 456.677,334.525 459.5,337.5C 459.5,338.167 459.833,338.5 460.5,338.5C 460.622,341.292 461.956,343.292 464.5,344.5C 465.167,344.5 465.5,344.833 465.5,345.5C 464.957,345.56 464.624,345.893 464.5,346.5C 466.725,350.338 469.392,353.672 472.5,356.5C 473.272,360.985 474.939,364.985 477.5,368.5C 477.5,369.167 477.833,369.5 478.5,369.5C 479.239,374.979 480.572,380.313 482.5,385.5C 480.83,390.852 479.163,396.185 477.5,401.5C 476.833,401.5 476.5,401.833 476.5,402.5C 474.75,403.659 473.75,405.326 473.5,407.5C 472.833,407.5 472.5,407.833 472.5,408.5C 472.5,409.167 472.167,409.5 471.5,409.5C 469.413,410.585 468.08,412.251 467.5,414.5C 466.833,414.5 466.5,414.833 466.5,415.5C 465.5,415.833 464.833,416.5 464.5,417.5C 461.802,417.845 459.802,419.178 458.5,421.5C 455.131,423.515 451.798,425.515 448.5,427.5C 438.802,431.259 428.802,434.092 418.5,436C 355.834,437.984 293.167,437.984 230.5,436C 226.166,435.1 221.832,434.266 217.5,433.5C 214.201,431.517 210.534,430.517 206.5,430.5C 205.232,428.953 203.565,427.953 201.5,427.5C 199.815,425.182 197.481,424.182 194.5,424.5C 193.415,422.413 191.749,421.08 189.5,420.5C 188.089,418.086 186.089,416.419 183.5,415.5C 183.5,414.833 183.167,414.5 182.5,414.5C 181.167,411.167 178.833,408.833 175.5,407.5C 175.5,407.167 175.5,406.833 175.5,406.5C 175.573,404.973 174.906,403.973 173.5,403.5C 173.672,402.508 173.338,401.842 172.5,401.5C 170.05,396.48 168.383,391.146 167.5,385.5C 168.171,381.824 168.838,378.157 169.5,374.5C 170.167,374.5 170.5,374.167 170.5,373.5C 172.601,370.203 173.935,366.537 174.5,362.5C 176.25,361.341 177.25,359.674 177.5,357.5C 179.346,355.97 180.346,353.97 180.5,351.5C 181.167,351.5 181.5,351.167 181.5,350.5C 184.044,349.292 185.378,347.292 185.5,344.5C 186.906,344.027 187.573,343.027 187.5,341.5C 189.424,341.289 189.757,340.623 188.5,339.5C 188.5,338.833 188.833,338.5 189.5,338.5C 192.044,337.292 193.378,335.292 193.5,332.5C 194.5,332.167 195.167,331.5 195.5,330.5C 197.69,327.312 200.024,324.145 202.5,321C 202.272,320.601 201.938,320.435 201.5,320.5C 201.5,319.833 201.833,319.5 202.5,319.5C 204.446,318.965 205.446,317.632 205.5,315.5C 207.262,314.738 208.262,313.404 208.5,311.5C 210.169,308.966 211.836,306.299 213.5,303.5C 214.167,303.5 214.5,303.167 214.5,302.5C 216.25,301.341 217.25,299.674 217.5,297.5C 218.167,297.5 218.5,297.167 218.5,296.5C 219.167,296.5 219.5,296.167 219.5,295.5C 220.338,295.158 220.672,294.492 220.5,293.5C 222.048,293.179 222.715,292.179 222.5,290.5C 223.906,290.027 224.573,289.027 224.5,287.5C 226.424,287.289 226.757,286.623 225.5,285.5C 225.5,284.833 225.833,284.5 226.5,284.5C 228.547,282.45 230.214,280.117 231.5,277.5C 233.727,276.599 234.727,274.933 234.5,272.5C 235.167,272.5 235.5,272.167 235.5,271.5C 239.313,266.569 243.146,261.569 247,256.5C 247.483,255.552 247.649,254.552 247.5,253.5C 248.338,253.158 248.672,252.492 248.5,251.5C 250.5,251.5 251.5,250.5 251.5,248.5C 253.192,246.795 254.525,244.795 255.5,242.5C 256.167,242.5 256.5,242.167 256.5,241.5C 258.25,240.341 259.25,238.674 259.5,236.5C 260.401,235.71 261.068,234.71 261.5,233.5C 263.532,232.952 264.532,231.619 264.5,229.5C 265.338,229.158 265.672,228.492 265.5,227.5C 266.906,227.027 267.573,226.027 267.5,224.5C 268.167,224.5 268.5,224.167 268.5,223.5C 270.25,222.341 271.25,220.674 271.5,218.5C 272.167,218.5 272.5,218.167 272.5,217.5C 275.044,216.292 276.378,214.292 276.5,211.5C 277.818,210.243 279.151,208.909 280.5,207.5C 280.376,206.893 280.043,206.56 279.5,206.5C 279.5,205.833 279.833,205.5 280.5,205.5C 282.982,204.337 284.316,202.337 284.5,199.5C 285.167,199.5 285.5,199.167 285.5,198.5C 287.727,197.599 288.727,195.933 288.5,193.5C 289.906,193.027 290.573,192.027 290.5,190.5C 293.729,188.39 295.729,185.39 296.5,181.5C 297.833,181.5 298.5,180.833 298.5,179.5C 300.382,178.779 300.715,177.779 299.5,176.5C 299.328,175.508 299.662,174.842 300.5,174.5C 301.077,175.773 301.743,175.773 302.5,174.5C 302.977,173.522 303.643,172.689 304.5,172C 304.272,171.601 303.938,171.435 303.5,171.5C 303.5,171.167 303.5,170.833 303.5,170.5C 303.833,170.5 304.167,170.5 304.5,170.5C 305.167,170.5 305.5,170.167 305.5,169.5C 307.218,167.777 308.551,165.777 309.5,163.5C 310.906,163.027 311.573,162.027 311.5,160.5C 312.906,160.027 313.573,159.027 313.5,157.5C 316.044,156.292 317.378,154.292 317.5,151.5C 318.167,151.5 318.5,151.167 318.5,150.5C 320.218,148.777 321.551,146.777 322.5,144.5C 323.458,144.047 324.292,143.381 325,142.5C 325.708,143.381 326.542,144.047 327.5,144.5 Z M 347.5,254.5 C 346.833,254.5 346.167,254.5 345.5,254.5C 331.5,254.5 317.5,254.5 303.5,254.5C 303.611,253.883 303.944,253.383 304.5,253C 318.167,252.333 331.833,252.333 345.5,253C 346.416,253.278 347.082,253.778 347.5,254.5 Z M 303.5,254.5 C 303.5,269.5 303.5,284.5 303.5,299.5C 289.167,299.5 274.833,299.5 260.5,299.5C 259.5,299.5 258.5,299.5 257.5,299.5C 257.611,298.883 257.944,298.383 258.5,298C 272.829,297.5 287.163,297.333 301.5,297.5C 300.85,282.794 301.517,268.461 303.5,254.5 Z M 347.5,254.5 C 348.496,268.657 348.829,282.99 348.5,297.5C 362.849,297.167 377.182,297.501 391.5,298.5C 391.376,299.107 391.043,299.44 390.5,299.5C 376.167,299.5 361.833,299.5 347.5,299.5C 347.5,299.167 347.5,298.833 347.5,298.5C 347.5,283.833 347.5,269.167 347.5,254.5 Z M 302.5,344.5 C 302.833,344.5 303.167,344.5 303.5,344.5C 303.5,358.833 303.5,373.167 303.5,387.5C 317.657,388.496 331.99,388.829 346.5,388.5C 339.699,389.831 332.533,390.497 325,390.5C 317.454,390.484 309.954,390.151 302.5,389.5C 301.501,374.848 301.167,360.182 301.5,345.5C 286.83,345.667 272.163,345.5 257.5,345C 272.496,344.5 287.496,344.333 302.5,344.5 Z M 347.5,344.5 C 362.167,344.5 376.833,344.5 391.5,344.5C 377.343,345.496 363.01,345.829 348.5,345.5C 348.667,360.17 348.5,374.837 348,389.5C 347.5,374.504 347.333,359.504 347.5,344.5 Z"/></g>
<g><path style="opacity:0.031" fill="#acdeeb" d="M 318.5,148.5 C 318.5,149.167 318.5,149.833 318.5,150.5C 317.833,150.5 317.5,150.833 317.5,151.5C 317.167,151.5 316.833,151.5 316.5,151.5C 316.427,149.973 317.094,148.973 318.5,148.5 Z"/></g>
<g><path style="opacity:0.055" fill="#b1e1ed" d="M 259.5,153.5 C 260.167,153.5 260.833,153.5 261.5,153.5C 260.833,154.833 259.833,155.833 258.5,156.5C 258.5,155.833 258.5,155.167 258.5,154.5C 259.167,154.5 259.5,154.167 259.5,153.5 Z"/></g>
<g><path style="opacity:0.999" fill="#1faacd" d="M 311.5,158.5 C 311.5,159.167 311.5,159.833 311.5,160.5C 310.094,160.973 309.427,161.973 309.5,163.5C 307.833,164.5 306.5,165.833 305.5,167.5C 304.094,167.973 303.427,168.973 303.5,170.5C 303.5,170.833 303.5,171.167 303.5,171.5C 302.167,172.167 301.167,173.167 300.5,174.5C 299.662,174.842 299.328,175.508 299.5,176.5C 298.89,177.391 298.557,178.391 298.5,179.5C 297.833,179.833 297.167,180.167 296.5,180.5C 294.186,179.821 293.853,178.488 295.5,176.5C 278.936,175.827 262.436,175.16 246,174.5C 244.385,176.905 243.719,176.905 244,174.5C 246.676,171.794 248.842,168.794 250.5,165.5C 251.6,164.395 252.267,163.062 252.5,161.5C 253.167,161.5 253.5,161.167 253.5,160.5C 254.167,160.5 254.5,160.167 254.5,159.5C 255.167,159.5 255.833,159.5 256.5,159.5C 256.5,160.5 256.5,161.5 256.5,162.5C 273.846,162.833 291.179,162.5 308.5,161.5C 309.188,160.145 310.188,159.145 311.5,158.5 Z"/></g>
<g><path style="opacity:0.999" fill="#1faacd" d="M 338.5,158.5 C 340.179,158.892 341.846,159.392 343.5,160C 341.557,161.193 341.724,162.693 344,164.5C 360.598,162.688 377.431,161.854 394.5,162C 393.748,161.329 393.414,160.496 393.5,159.5C 394.391,160.11 395.391,160.443 396.5,160.5C 396.328,161.492 396.662,162.158 397.5,162.5C 398.167,164.5 399.5,165.833 401.5,166.5C 402.757,169.427 404.757,171.761 407.5,173.5C 407.5,174.167 407.5,174.833 407.5,175.5C 407.304,177.646 406.304,177.812 404.5,176C 387.5,175.333 370.5,175.333 353.5,176C 354.517,177.049 354.684,178.216 354,179.5C 353.583,178.244 352.75,177.577 351.5,177.5C 350.833,177.167 350.167,176.833 349.5,176.5C 348.833,176.5 348.5,176.167 348.5,175.5C 348.378,172.708 347.044,170.708 344.5,169.5C 343.66,167.147 342.326,165.147 340.5,163.5C 340.107,161.716 339.441,160.05 338.5,158.5 Z"/></g>
<g><path style="opacity:0.02" fill="#a8dfeb" d="M 305.5,167.5 C 305.5,168.167 305.5,168.833 305.5,169.5C 304.833,169.5 304.5,169.833 304.5,170.5C 304.167,170.5 303.833,170.5 303.5,170.5C 303.427,168.973 304.094,167.973 305.5,167.5 Z"/></g>
<g><path style="opacity:1" fill="#1fadcd" d="M 249.5,165.5 C 249.833,165.5 250.167,165.5 250.5,165.5C 248.842,168.794 246.676,171.794 244,174.5C 243.719,176.905 244.385,176.905 246,174.5C 262.436,175.16 278.936,175.827 295.5,176.5C 293.853,178.488 294.186,179.821 296.5,180.5C 296.5,180.833 296.5,181.167 296.5,181.5C 295.272,182.306 294.272,183.306 293.5,184.5C 292.129,186.17 290.629,186.836 289,186.5C 288.027,188.392 287.36,190.392 287,192.5C 269.16,190.837 251.16,189.837 233,189.5C 231,190.833 229.333,192.5 228,194.5C 227.805,193.181 227.972,191.847 228.5,190.5C 229.925,189.078 230.925,187.411 231.5,185.5C 232.167,185.5 232.5,185.167 232.5,184.5C 234.167,183.5 235.5,182.167 236.5,180.5C 238.633,178.909 240.299,176.909 241.5,174.5C 242.167,174.5 242.5,174.167 242.5,173.5C 243.167,173.5 243.5,173.167 243.5,172.5C 244.167,172.5 244.5,172.167 244.5,171.5C 245.906,171.027 246.573,170.027 246.5,168.5C 247.167,168.5 247.5,168.167 247.5,167.5C 248.5,167.167 249.167,166.5 249.5,165.5 Z"/></g>
<g><path style="opacity:1" fill="#1cadcd" d="M 407.5,175.5 C 408.922,176.925 410.589,177.925 412.5,178.5C 413.075,180.411 414.075,182.078 415.5,183.5C 416.605,185.153 416.771,186.82 416,188.5C 417.281,188.381 418.448,188.881 419.5,190C 400.824,190.167 382.158,190.667 363.5,191.5C 364.885,192.551 365.885,193.884 366.5,195.5C 366.043,196.298 365.376,196.631 364.5,196.5C 363.136,192.42 360.802,189.087 357.5,186.5C 356.833,186.167 356.167,185.833 355.5,185.5C 354.601,182.605 353.267,179.938 351.5,177.5C 352.75,177.577 353.583,178.244 354,179.5C 354.684,178.216 354.517,177.049 353.5,176C 370.5,175.333 387.5,175.333 404.5,176C 406.304,177.812 407.304,177.646 407.5,175.5 Z"/></g>
<g><path style="opacity:1" fill="#1eb2ce" d="M 293.5,184.5 C 292.5,186.5 291.5,188.5 290.5,190.5C 289.094,190.973 288.427,191.973 288.5,193.5C 286.721,194.67 285.721,196.336 285.5,198.5C 284.833,198.5 284.5,198.833 284.5,199.5C 282.178,200.802 280.845,202.802 280.5,205.5C 279.833,205.5 279.5,205.833 279.5,206.5C 277.75,207.659 276.75,209.326 276.5,211.5C 274.674,213.147 273.34,215.147 272.5,217.5C 271.833,217.5 271.5,217.833 271.5,218.5C 270.5,218.833 269.833,219.5 269.5,220.5C 268.504,220.586 267.671,220.252 267,219.5C 266.626,220.416 266.126,221.25 265.5,222C 244.836,222.5 224.169,222.667 203.5,222.5C 203.5,221.167 203.5,219.833 203.5,218.5C 203.5,217.833 203.833,217.5 204.5,217.5C 205.833,216.833 206.833,215.833 207.5,214.5C 210.5,210.5 213.5,206.5 216.5,202.5C 218.587,201.415 219.92,199.749 220.5,197.5C 221.167,197.5 221.5,197.167 221.5,196.5C 224.167,195.833 225.833,194.167 226.5,191.5C 226.5,191.167 226.5,190.833 226.5,190.5C 227.167,190.5 227.833,190.5 228.5,190.5C 227.972,191.847 227.805,193.181 228,194.5C 229.333,192.5 231,190.833 233,189.5C 251.16,189.837 269.16,190.837 287,192.5C 287.36,190.392 288.027,188.392 289,186.5C 290.629,186.836 292.129,186.17 293.5,184.5 Z"/></g>
<g><path style="opacity:0.659" fill="#64c6dc" d="M 357.5,186.5 C 360.802,189.087 363.136,192.42 364.5,196.5C 363.5,195.833 362.5,195.167 361.5,194.5C 361.13,191.733 359.796,189.733 357.5,188.5C 357.5,188.167 357.5,187.833 357.5,187.5C 357.5,187.167 357.5,186.833 357.5,186.5 Z"/></g>
<g><path style="opacity:1" fill="#1eb2ce" d="M 415.5,183.5 C 416.167,183.833 416.833,184.167 417.5,184.5C 417.5,185.167 417.833,185.5 418.5,185.5C 419.08,187.749 420.413,189.415 422.5,190.5C 422.5,191.167 422.833,191.5 423.5,191.5C 423.5,193.5 424.5,194.5 426.5,194.5C 427.441,198.381 429.774,201.047 433.5,202.5C 433.5,203.167 433.833,203.5 434.5,203.5C 435.419,206.089 437.086,208.089 439.5,209.5C 440.5,212.5 442.5,214.5 445.5,215.5C 445.5,215.833 445.5,216.167 445.5,216.5C 446.11,217.391 446.443,218.391 446.5,219.5C 446.5,220.5 446.5,221.5 446.5,222.5C 425.823,222.833 405.156,222.5 384.5,221.5C 383.167,219.5 381.5,217.833 379.5,216.5C 378.359,215.575 378.359,214.741 379.5,214C 377.97,212.88 376.303,212.046 374.5,211.5C 372.874,208.872 370.874,206.539 368.5,204.5C 367.89,202.566 366.89,200.899 365.5,199.5C 365.443,198.391 365.11,197.391 364.5,196.5C 365.376,196.631 366.043,196.298 366.5,195.5C 365.885,193.884 364.885,192.551 363.5,191.5C 382.158,190.667 400.824,190.167 419.5,190C 418.448,188.881 417.281,188.381 416,188.5C 416.771,186.82 416.605,185.153 415.5,183.5 Z"/></g>
<g><path style="opacity:0.047" fill="#9cdfe9" d="M 205.5,214.5 C 206.167,214.5 206.833,214.5 207.5,214.5C 206.833,215.833 205.833,216.833 204.5,217.5C 204.5,216.833 204.5,216.167 204.5,215.5C 205.167,215.5 205.5,215.167 205.5,214.5 Z"/></g>
<g><path style="opacity:1" fill="#1eb9cf" d="M 203.5,218.5 C 203.5,219.833 203.5,221.167 203.5,222.5C 224.169,222.667 244.836,222.5 265.5,222C 266.126,221.25 266.626,220.416 267,219.5C 267.671,220.252 268.504,220.586 269.5,220.5C 269.5,221.167 269.167,221.5 268.5,221.5C 263.922,224.367 261.255,228.367 260.5,233.5C 259.596,234.209 259.263,235.209 259.5,236.5C 257.738,237.262 256.738,238.596 256.5,240.5C 255.167,240.5 254.5,241.167 254.5,242.5C 252.654,244.03 251.654,246.03 251.5,248.5C 251.167,248.5 250.833,248.5 250.5,248.5C 248.345,248.372 246.345,248.872 244.5,250C 223.167,250.667 201.833,250.667 180.5,250C 179.244,249.583 178.577,248.75 178.5,247.5C 178.5,246.833 178.5,246.167 178.5,245.5C 179.167,245.5 179.5,245.167 179.5,244.5C 181.167,243.5 182.5,242.167 183.5,240.5C 186.167,239.833 187.833,238.167 188.5,235.5C 190.218,233.777 191.551,231.777 192.5,229.5C 193.833,229.5 194.5,228.833 194.5,227.5C 195.167,227.5 195.5,227.167 195.5,226.5C 197.587,225.415 198.92,223.749 199.5,221.5C 200.167,221.5 200.5,221.167 200.5,220.5C 201.167,220.5 201.5,220.167 201.5,219.5C 202.167,219.167 202.833,218.833 203.5,218.5 Z"/></g>
<g><path style="opacity:1" fill="#20b9cf" d="M 374.5,211.5 C 376.303,212.046 377.97,212.88 379.5,214C 378.359,214.741 378.359,215.575 379.5,216.5C 381.5,217.833 383.167,219.5 384.5,221.5C 405.156,222.5 425.823,222.833 446.5,222.5C 446.5,221.5 446.5,220.5 446.5,219.5C 447.391,220.11 448.391,220.443 449.5,220.5C 449.5,221.167 449.833,221.5 450.5,221.5C 451.419,224.089 453.086,226.089 455.5,227.5C 456.5,230.5 458.5,232.5 461.5,233.5C 461.67,236.204 463.003,237.871 465.5,238.5C 465.5,239.167 465.833,239.5 466.5,239.5C 466.5,240.167 466.833,240.5 467.5,240.5C 467.738,242.404 468.738,243.738 470.5,244.5C 470.5,245.167 470.833,245.5 471.5,245.5C 471.5,246.167 471.5,246.833 471.5,247.5C 472.087,248.767 472.087,249.767 471.5,250.5C 448.679,250.475 425.679,250.475 402.5,250.5C 402.509,248.692 402.009,247.025 401,245.5C 398.965,245.394 397.132,244.394 395.5,242.5C 395.167,242.5 394.833,242.5 394.5,242.5C 394.5,242.167 394.5,241.833 394.5,241.5C 393.308,239.122 391.641,237.122 389.5,235.5C 389.727,233.067 388.727,231.401 386.5,230.5C 385.833,230.5 385.5,230.167 385.5,229.5C 385.25,227.326 384.25,225.659 382.5,224.5C 381.833,224.5 381.5,224.167 381.5,223.5C 380.833,223.5 380.5,223.167 380.5,222.5C 380.25,220.326 379.25,218.659 377.5,217.5C 376.904,215.255 375.904,213.255 374.5,211.5 Z"/></g>
<g><path style="opacity:0.769" fill="#6ccadb" d="M 268.5,221.5 C 268.5,222.167 268.5,222.833 268.5,223.5C 267.833,223.5 267.5,223.833 267.5,224.5C 266.094,224.973 265.427,225.973 265.5,227.5C 264.662,227.842 264.328,228.508 264.5,229.5C 262.738,230.262 261.738,231.596 261.5,233.5C 261.167,233.5 260.833,233.5 260.5,233.5C 261.255,228.367 263.922,224.367 268.5,221.5 Z"/></g>
<g><path style="opacity:0.145" fill="#8ddae5" d="M 188.5,235.5 C 187.833,238.167 186.167,239.833 183.5,240.5C 183.5,240.167 183.5,239.833 183.5,239.5C 184.167,239.5 184.5,239.167 184.5,238.5C 185.833,237.5 187.167,236.5 188.5,235.5 Z"/></g>
<g><path style="opacity:0.004" fill="#d7f2f6" d="M 256.5,240.5 C 256.5,240.833 256.5,241.167 256.5,241.5C 255.833,241.5 255.5,241.833 255.5,242.5C 255.167,242.5 254.833,242.5 254.5,242.5C 254.5,241.167 255.167,240.5 256.5,240.5 Z"/></g>
<g><path style="opacity:1" fill="#22bfd0" d="M 178.5,247.5 C 178.577,248.75 179.244,249.583 180.5,250C 201.833,250.667 223.167,250.667 244.5,250C 246.345,248.872 248.345,248.372 250.5,248.5C 249.833,249.5 249.167,250.5 248.5,251.5C 247.662,251.842 247.328,252.508 247.5,253.5C 242.503,258.825 238.503,264.825 235.5,271.5C 234.833,271.5 234.5,271.833 234.5,272.5C 233.728,273.694 232.728,274.694 231.5,275.5C 206.511,276.779 181.177,276.779 155.5,275.5C 156.127,274.583 156.461,273.583 156.5,272.5C 156.5,271.833 156.5,271.167 156.5,270.5C 157.5,270.167 158.167,269.5 158.5,268.5C 160.262,267.738 161.262,266.404 161.5,264.5C 162.167,264.5 162.5,264.167 162.5,263.5C 164.914,262.089 166.581,260.089 167.5,257.5C 170.621,256.712 172.288,254.712 172.5,251.5C 174.754,250.585 176.754,249.252 178.5,247.5 Z"/></g>
<g><path style="opacity:0.999" fill="#22bfd0" d="M 395.5,242.5 C 397.132,244.394 398.965,245.394 401,245.5C 402.009,247.025 402.509,248.692 402.5,250.5C 425.679,250.475 448.679,250.475 471.5,250.5C 472.087,249.767 472.087,248.767 471.5,247.5C 474.527,249.86 477.194,252.527 479.5,255.5C 479.5,257.5 480.5,258.5 482.5,258.5C 483.833,260.5 485.5,262.167 487.5,263.5C 488.419,266.089 490.086,268.089 492.5,269.5C 493.167,271.167 493.833,272.833 494.5,274.5C 470.03,275.87 445.363,277.203 420.5,278.5C 420.167,278.5 419.833,278.5 419.5,278.5C 418.214,275.883 416.547,273.55 414.5,271.5C 413.602,268.604 411.935,266.271 409.5,264.5C 409.25,262.326 408.25,260.659 406.5,259.5C 405.92,257.251 404.587,255.585 402.5,254.5C 402.316,251.663 400.982,249.663 398.5,248.5C 397.529,246.517 396.529,244.517 395.5,242.5 Z"/></g>
<g><path style="opacity:0.243" fill="#a1e2ea" d="M 479.5,255.5 C 480.167,255.833 480.833,256.167 481.5,256.5C 481.5,257.167 481.833,257.5 482.5,257.5C 482.5,257.833 482.5,258.167 482.5,258.5C 480.5,258.5 479.5,257.5 479.5,255.5 Z"/></g>
<g><path style="opacity:0.996" fill="#1398ca" d="M 303.5,254.5 C 317.5,254.5 331.5,254.5 345.5,254.5C 345.333,269.837 345.5,285.17 346,300.5C 346.278,299.584 346.778,298.918 347.5,298.5C 347.5,298.833 347.5,299.167 347.5,299.5C 361.323,300.496 375.323,300.829 389.5,300.5C 389.5,313.833 389.5,327.167 389.5,340.5C 375.163,340.333 360.829,340.5 346.5,341C 361.006,341.169 375.339,341.669 389.5,342.5C 374.921,342.176 360.421,342.51 346,343.5C 345.5,358.163 345.333,372.83 345.5,387.5C 331.5,387.5 317.5,387.5 303.5,387.5C 303.5,373.167 303.5,358.833 303.5,344.5C 289.205,342.517 274.538,341.85 259.5,342.5C 259.5,328.5 259.5,314.5 259.5,300.5C 260.167,300.5 260.5,300.167 260.5,299.5C 274.833,299.5 289.167,299.5 303.5,299.5C 303.5,284.5 303.5,269.5 303.5,254.5 Z"/></g>
<g><path style="opacity:0.361" fill="#83c4e1" d="M 345.5,254.5 C 346.167,254.5 346.833,254.5 347.5,254.5C 347.5,269.167 347.5,283.833 347.5,298.5C 346.778,298.918 346.278,299.584 346,300.5C 345.5,285.17 345.333,269.837 345.5,254.5 Z"/></g>
<g><path style="opacity:1" fill="#23c4d0" d="M 156.5,272.5 C 156.461,273.583 156.127,274.583 155.5,275.5C 181.177,276.779 206.511,276.779 231.5,275.5C 231.5,276.167 231.5,276.833 231.5,277.5C 228.677,278.992 227.01,281.326 226.5,284.5C 225.833,284.5 225.5,284.833 225.5,285.5C 224.662,285.842 224.328,286.508 224.5,287.5C 222.952,287.821 222.285,288.821 222.5,290.5C 221.094,290.973 220.427,291.973 220.5,293.5C 219.833,293.5 219.5,293.833 219.5,294.5C 217.983,294.511 216.816,295.177 216,296.5C 192.313,296.637 168.48,296.471 144.5,296C 145.696,295.346 145.696,294.846 144.5,294.5C 143.817,294.863 143.15,295.196 142.5,295.5C 142.5,294.833 142.5,294.167 142.5,293.5C 144.083,291.337 145.416,289.004 146.5,286.5C 148.539,285.089 149.539,283.089 149.5,280.5C 151.698,280.591 152.031,279.925 150.5,278.5C 151.833,278.5 152.5,277.833 152.5,276.5C 153.833,275.167 155.167,273.833 156.5,272.5 Z"/></g>
<g><path style="opacity:0.999" fill="#21c3d0" d="M 494.5,274.5 C 495.833,275.5 497.167,276.5 498.5,277.5C 499.498,281.505 501.498,284.839 504.5,287.5C 504.433,288.959 504.766,290.292 505.5,291.5C 505.698,293.575 505.865,295.575 506,297.5C 494.24,296.838 482.407,296.505 470.5,296.5C 458.442,296.511 446.609,297.177 435,298.5C 434.293,296.919 433.46,295.419 432.5,294C 434.686,293.396 434.852,292.23 433,290.5C 432.29,291.973 431.124,292.64 429.5,292.5C 429.158,291.662 428.492,291.328 427.5,291.5C 427.5,291.167 427.5,290.833 427.5,290.5C 426.99,287.326 425.323,284.992 422.5,283.5C 421.833,281.833 421.167,280.167 420.5,278.5C 445.363,277.203 470.03,275.87 494.5,274.5 Z"/></g>
<g><path style="opacity:1" fill="#23c7d1" d="M 219.5,294.5 C 219.5,294.833 219.5,295.167 219.5,295.5C 218.833,295.5 218.5,295.833 218.5,296.5C 217.833,296.5 217.5,296.833 217.5,297.5C 215.75,298.659 214.75,300.326 214.5,302.5C 213.833,302.5 213.5,302.833 213.5,303.5C 212.167,304.5 210.833,305.5 209.5,306.5C 208.596,305.791 208.263,304.791 208.5,303.5C 186.167,303.5 163.833,303.5 141.5,303.5C 141.216,306.852 140.05,309.852 138,312.5C 137.601,312.272 137.435,311.938 137.5,311.5C 138.297,307.777 139.297,304.11 140.5,300.5C 140.893,298.716 141.559,297.05 142.5,295.5C 143.15,295.196 143.817,294.863 144.5,294.5C 145.696,294.846 145.696,295.346 144.5,296C 168.48,296.471 192.313,296.637 216,296.5C 216.816,295.177 217.983,294.511 219.5,294.5 Z"/></g>
<g><path style="opacity:1" fill="#2bc8d2" d="M 505.5,291.5 C 506.653,294.47 508.32,297.137 510.5,299.5C 510.963,302.221 511.629,304.888 512.5,307.5C 511.257,305.836 509.59,304.669 507.5,304C 485.167,303.333 462.833,303.333 440.5,304C 442.884,306.379 444.384,309.213 445,312.5C 445.333,312.167 445.667,311.833 446,311.5C 446.494,313.134 446.66,314.801 446.5,316.5C 445.272,315.694 444.272,314.694 443.5,313.5C 443.5,311.5 442.5,310.5 440.5,310.5C 440.5,310.167 440.5,309.833 440.5,309.5C 439.833,309.5 439.5,309.167 439.5,308.5C 439.155,305.802 437.822,303.802 435.5,302.5C 434.833,302.5 434.5,302.167 434.5,301.5C 434.25,299.326 433.25,297.659 431.5,296.5C 431.267,294.938 430.6,293.605 429.5,292.5C 431.124,292.64 432.29,291.973 433,290.5C 434.852,292.23 434.686,293.396 432.5,294C 433.46,295.419 434.293,296.919 435,298.5C 446.609,297.177 458.442,296.511 470.5,296.5C 482.407,296.505 494.24,296.838 506,297.5C 505.865,295.575 505.698,293.575 505.5,291.5 Z"/></g>
<g><path style="opacity:0.098" fill="#cce9f3" d="M 257.5,299.5 C 258.5,299.5 259.5,299.5 260.5,299.5C 260.5,300.167 260.167,300.5 259.5,300.5C 258.833,300.833 258.167,301.167 257.5,301.5C 257.5,300.833 257.5,300.167 257.5,299.5 Z"/></g>
<g><path style="opacity:0.992" fill="#0892c7" d="M 347.5,299.5 C 361.833,299.5 376.167,299.5 390.5,299.5C 390.5,299.833 390.5,300.167 390.5,300.5C 390.829,314.677 390.496,328.677 389.5,342.5C 375.339,341.669 361.006,341.169 346.5,341C 360.829,340.5 375.163,340.333 389.5,340.5C 389.5,327.167 389.5,313.833 389.5,300.5C 375.323,300.829 361.323,300.496 347.5,299.5 Z"/></g>
<g><path style="opacity:1" fill="#25cbd1" d="M 209.5,306.5 C 209.371,308.216 209.038,309.883 208.5,311.5C 206.554,312.035 205.554,313.368 205.5,315.5C 203.554,316.035 202.554,317.368 202.5,319.5C 201.833,319.5 201.5,319.833 201.5,320.5C 198.498,323.161 196.498,326.495 195.5,330.5C 194.167,330.5 193.5,331.167 193.5,332.5C 193.167,332.5 192.833,332.5 192.5,332.5C 190.319,332.284 188.653,333.117 187.5,335C 169.17,335.5 150.836,335.667 132.5,335.5C 132.5,337.167 132.5,338.833 132.5,340.5C 131.5,340.5 130.5,340.5 129.5,340.5C 130.5,333.167 131.5,325.833 132.5,318.5C 134.27,316.498 135.603,314.164 136.5,311.5C 136.833,311.5 137.167,311.5 137.5,311.5C 137.435,311.938 137.601,312.272 138,312.5C 140.05,309.852 141.216,306.852 141.5,303.5C 163.833,303.5 186.167,303.5 208.5,303.5C 208.263,304.791 208.596,305.791 209.5,306.5 Z"/></g>
<g><path style="opacity:0.122" fill="#2fa5d1" d="M 259.5,300.5 C 259.5,314.5 259.5,328.5 259.5,342.5C 259.167,342.5 258.833,342.5 258.5,342.5C 258.167,342.5 257.833,342.5 257.5,342.5C 257.5,328.833 257.5,315.167 257.5,301.5C 258.167,301.167 258.833,300.833 259.5,300.5 Z"/></g>
<g><path style="opacity:1" fill="#23cbd1" d="M 512.5,307.5 C 512.833,308.833 513.167,310.167 513.5,311.5C 513.796,313.403 514.463,315.07 515.5,316.5C 516.657,319.273 517.324,322.273 517.5,325.5C 517.784,328.777 517.451,331.943 516.5,335C 498.5,335.667 480.5,335.667 462.5,335C 462,334.5 461.5,334 461,333.5C 460.014,334.171 458.847,334.171 457.5,333.5C 456.557,330.891 454.89,328.891 452.5,327.5C 451.833,327.5 451.5,327.167 451.5,326.5C 451.006,323.025 449.339,320.358 446.5,318.5C 446.5,317.833 446.5,317.167 446.5,316.5C 446.66,314.801 446.494,313.134 446,311.5C 445.667,311.833 445.333,312.167 445,312.5C 444.384,309.213 442.884,306.379 440.5,304C 462.833,303.333 485.167,303.333 507.5,304C 509.59,304.669 511.257,305.836 512.5,307.5 Z"/></g>
<g><path style="opacity:0.294" fill="#7bdde3" d="M 140.5,300.5 C 139.297,304.11 138.297,307.777 137.5,311.5C 137.167,311.5 136.833,311.5 136.5,311.5C 136.677,307.292 138.01,303.626 140.5,300.5 Z"/></g>
<g><path style="opacity:0.012" fill="#c1f0f1" d="M 513.5,311.5 C 513.833,311.5 514.167,311.5 514.5,311.5C 514.5,312.167 514.833,312.5 515.5,312.5C 515.5,313.833 515.5,315.167 515.5,316.5C 514.463,315.07 513.796,313.403 513.5,311.5 Z"/></g>
<g><path style="opacity:1" fill="#27d1d2" d="M 192.5,332.5 C 190.975,334.216 189.975,336.216 189.5,338.5C 188.833,338.5 188.5,338.833 188.5,339.5C 187.662,339.842 187.328,340.508 187.5,341.5C 186.094,341.973 185.427,342.973 185.5,344.5C 183.587,346.12 182.253,348.12 181.5,350.5C 180.833,350.5 180.5,350.833 180.5,351.5C 178.461,352.911 177.461,354.911 177.5,357.5C 175.554,358.035 174.554,359.368 174.5,361.5C 173.167,361.833 171.833,362.167 170.5,362.5C 157.5,362.5 144.5,362.5 131.5,362.5C 132.036,365.698 131.369,368.365 129.5,370.5C 128.233,360.508 128.233,350.508 129.5,340.5C 130.5,340.5 131.5,340.5 132.5,340.5C 132.5,338.833 132.5,337.167 132.5,335.5C 150.836,335.667 169.17,335.5 187.5,335C 188.653,333.117 190.319,332.284 192.5,332.5 Z"/></g>
<g><path style="opacity:0.999" fill="#26d1d2" d="M 517.5,325.5 C 518.709,329.618 519.376,333.951 519.5,338.5C 519.077,340.781 519.744,342.448 521.5,343.5C 521.5,345.5 521.5,347.5 521.5,349.5C 520.51,355.31 520.177,361.31 520.5,367.5C 518.744,366.448 518.077,364.781 518.5,362.5C 504.754,362.185 491.088,362.519 477.5,363.5C 477.068,362.29 476.401,361.29 475.5,360.5C 474.5,359.167 473.5,357.833 472.5,356.5C 470.403,352.628 468.069,348.961 465.5,345.5C 465.5,344.833 465.167,344.5 464.5,344.5C 463.551,342.223 462.218,340.223 460.5,338.5C 459.833,338.5 459.5,338.167 459.5,337.5C 459.267,335.938 458.6,334.605 457.5,333.5C 458.847,334.171 460.014,334.171 461,333.5C 461.5,334 462,334.5 462.5,335C 480.5,335.667 498.5,335.667 516.5,335C 517.451,331.943 517.784,328.777 517.5,325.5 Z"/></g>
<g><path style="opacity:0.275" fill="#b5eeef" d="M 519.5,338.5 C 520.931,339.78 521.598,341.447 521.5,343.5C 519.744,342.448 519.077,340.781 519.5,338.5 Z"/></g>
<g><path style="opacity:0.302" fill="#60b9db" d="M 258.5,342.5 C 258.833,342.5 259.167,342.5 259.5,342.5C 274.538,341.85 289.205,342.517 303.5,344.5C 303.167,344.5 302.833,344.5 302.5,344.5C 287.833,343.833 273.167,343.167 258.5,342.5 Z"/></g>
<g><path style="opacity:0.361" fill="#72bdde" d="M 390.5,300.5 C 391.496,314.99 391.829,329.657 391.5,344.5C 376.833,344.5 362.167,344.5 347.5,344.5C 346.504,358.99 346.171,373.657 346.5,388.5C 331.99,388.829 317.657,388.496 303.5,387.5C 317.5,387.5 331.5,387.5 345.5,387.5C 345.333,372.83 345.5,358.163 346,343.5C 360.421,342.51 374.921,342.176 389.5,342.5C 390.496,328.677 390.829,314.677 390.5,300.5 Z"/></g>
<g><path style="opacity:0.157" fill="#b9f0f0" d="M 521.5,349.5 C 522.623,355.481 522.623,361.481 521.5,367.5C 521.167,367.5 520.833,367.5 520.5,367.5C 520.177,361.31 520.51,355.31 521.5,349.5 Z"/></g>
<g><path style="opacity:0.078" fill="#8be8e7" d="M 475.5,360.5 C 476.401,361.29 477.068,362.29 477.5,363.5C 478.363,365.421 479.029,367.421 479.5,369.5C 479.167,369.5 478.833,369.5 478.5,369.5C 477.833,369.5 477.5,369.167 477.5,368.5C 476.833,365.833 476.167,363.167 475.5,360.5 Z"/></g>
<g><path style="opacity:0.999" fill="#24d7d3" d="M 170.5,362.5 C 170.628,365.513 169.628,368.013 167.5,370C 167.995,372.009 167.995,374.176 167.5,376.5C 165.96,378.838 165.294,381.505 165.5,384.5C 165.5,385.167 165.5,385.833 165.5,386.5C 164.89,387.391 164.557,388.391 164.5,389.5C 164.5,390.167 164.167,390.5 163.5,390.5C 162.258,383.992 161.592,383.992 161.5,390.5C 151.987,390.406 142.654,390.406 133.5,390.5C 132.836,386.513 132.169,382.513 131.5,378.5C 131.36,376.97 130.693,375.97 129.5,375.5C 129.5,373.833 129.5,372.167 129.5,370.5C 131.369,368.365 132.036,365.698 131.5,362.5C 144.5,362.5 157.5,362.5 170.5,362.5 Z"/></g>
<g><path style="opacity:0.999" fill="#2ad7d3" d="M 520.5,367.5 C 520.833,367.5 521.167,367.5 521.5,367.5C 521.5,368.833 521.5,370.167 521.5,371.5C 520.326,372.514 519.66,373.847 519.5,375.5C 519.561,381.804 518.561,387.804 516.5,393.5C 516.586,392.504 516.252,391.671 515.5,391C 506.482,390.832 497.482,390.332 488.5,389.5C 488,388.5 487.5,387.5 487,386.5C 486.505,388.473 486.338,390.473 486.5,392.5C 485.566,391.432 485.232,390.099 485.5,388.5C 485.5,387.167 484.833,386.5 483.5,386.5C 482.944,380.611 481.611,374.945 479.5,369.5C 479.029,367.421 478.363,365.421 477.5,363.5C 491.088,362.519 504.754,362.185 518.5,362.5C 518.077,364.781 518.744,366.448 520.5,367.5 Z"/></g>
<g><path style="opacity:0.952" fill="#62dedc" d="M 174.5,361.5 C 174.5,361.833 174.5,362.167 174.5,362.5C 172.654,365.338 170.988,368.338 169.5,371.5C 169.863,372.183 170.196,372.85 170.5,373.5C 169.833,373.5 169.5,373.833 169.5,374.5C 168.833,375.167 168.167,375.833 167.5,376.5C 167.995,374.176 167.995,372.009 167.5,370C 169.628,368.013 170.628,365.513 170.5,362.5C 171.833,362.167 173.167,361.833 174.5,361.5 Z"/></g>
<g><path style="opacity:0.035" fill="#c4f4f2" d="M 521.5,371.5 C 521.771,373.38 521.104,374.713 519.5,375.5C 519.66,373.847 520.326,372.514 521.5,371.5 Z"/></g>
<g><path style="opacity:0.278" fill="#96ebe8" d="M 167.5,376.5 C 167.435,379.428 166.768,382.095 165.5,384.5C 165.294,381.505 165.96,378.838 167.5,376.5 Z"/></g>
<g><path style="opacity:0.306" fill="#77c3e0" d="M 483.5,386.5 C 484.833,386.5 485.5,387.167 485.5,388.5C 484.313,390.072 483.313,391.739 482.5,393.5C 482.674,391.139 483.007,388.806 483.5,386.5 Z"/></g>
<g><path style="opacity:1" fill="#1699cb" d="M 485.5,388.5 C 485.232,390.099 485.566,391.432 486.5,392.5C 486.5,392.833 486.5,393.167 486.5,393.5C 487.731,406.842 487.731,420.175 486.5,433.5C 482.893,446.384 477.893,458.717 471.5,470.5C 469.336,472.822 467.669,475.489 466.5,478.5C 465.075,479.922 464.075,481.589 463.5,483.5C 462.833,483.5 462.5,483.833 462.5,484.5C 459.281,485.069 456.948,486.736 455.5,489.5C 451.646,490.93 447.979,492.597 444.5,494.5C 443.833,494.5 443.5,494.833 443.5,495.5C 439.89,496.703 436.223,497.703 432.5,498.5C 430.5,498.5 428.5,498.5 426.5,498.5C 426.5,499.5 426.5,500.5 426.5,501.5C 426.167,501.5 425.833,501.5 425.5,501.5C 425.083,500.876 424.416,500.543 423.5,500.5C 422.287,500.747 421.62,501.414 421.5,502.5C 418.545,503.159 415.545,503.492 412.5,503.5C 412.5,503.167 412.5,502.833 412.5,502.5C 411.036,501.84 409.369,501.507 407.5,501.5C 354.008,502.145 300.675,502.812 247.5,503.5C 247.5,503.833 247.5,504.167 247.5,504.5C 245.5,504.5 243.5,504.5 241.5,504.5C 237.42,501.775 233.086,501.108 228.5,502.5C 225.873,501.908 223.206,501.575 220.5,501.5C 220.53,500.503 220.03,499.836 219,499.5C 215.728,498.726 212.561,497.726 209.5,496.5C 209.027,495.094 208.027,494.427 206.5,494.5C 205.833,494.5 205.167,494.5 204.5,494.5C 201.912,492.375 198.912,491.042 195.5,490.5C 195.167,489.5 194.5,488.833 193.5,488.5C 192.167,487.167 190.833,485.833 189.5,484.5C 188.738,482.738 187.404,481.738 185.5,481.5C 185.158,480.662 184.492,480.328 183.5,480.5C 183.5,479.833 183.5,479.167 183.5,478.5C 181.416,474.664 179.083,470.997 176.5,467.5C 171.668,458.17 167.668,448.503 164.5,438.5C 164.59,435.848 163.924,433.515 162.5,431.5C 161.949,428.193 161.616,424.86 161.5,421.5C 161.204,411.092 161.87,400.759 163.5,390.5C 164.167,390.5 164.5,390.167 164.5,389.5C 165.687,391.072 166.687,392.739 167.5,394.5C 168.338,394.842 168.672,395.508 168.5,396.5C 169.195,399.915 170.862,402.582 173.5,404.5C 173.833,405.5 174.5,406.167 175.5,406.5C 175.5,406.833 175.5,407.167 175.5,407.5C 177.279,409.546 178.946,411.713 180.5,414C 181.094,414.464 181.761,414.631 182.5,414.5C 183.167,414.5 183.5,414.833 183.5,415.5C 184.268,418.562 186.268,420.228 189.5,420.5C 190.585,422.587 192.251,423.92 194.5,424.5C 194.5,425.167 194.833,425.5 195.5,425.5C 196.733,427.796 198.733,429.13 201.5,429.5C 203.117,430.038 204.784,430.371 206.5,430.5C 209.799,432.483 213.466,433.483 217.5,433.5C 217.791,434.649 218.624,435.316 220,435.5C 225.11,436.657 230.277,437.324 235.5,437.5C 238.598,438.821 242.098,439.488 246,439.5C 249.683,439.499 253.183,439.165 256.5,438.5C 263.167,438.5 269.833,438.5 276.5,438.5C 273.359,439.321 270.025,439.821 266.5,440C 303.833,440.667 341.167,440.667 378.5,440C 375.635,439.817 372.969,439.317 370.5,438.5C 377.833,438.5 385.167,438.5 392.5,438.5C 398.987,439.654 405.654,439.821 412.5,439C 413.056,438.617 413.389,438.117 413.5,437.5C 419.87,437.16 426.204,436.494 432.5,435.5C 436.236,435.459 439.236,434.126 441.5,431.5C 444.406,430.892 446.74,429.559 448.5,427.5C 452.052,426.724 455.386,425.391 458.5,423.5C 461.921,422.461 464.588,420.461 466.5,417.5C 466.5,416.833 466.5,416.167 466.5,415.5C 467.167,415.5 467.5,415.167 467.5,414.5C 469.587,413.415 470.92,411.749 471.5,409.5C 472.167,409.5 472.5,409.167 472.5,408.5C 473.167,408.5 473.5,408.167 473.5,407.5C 474.833,406.833 475.833,405.833 476.5,404.5C 477.906,404.027 478.573,403.027 478.5,401.5C 479.655,398.672 480.989,396.005 482.5,393.5C 483.313,391.739 484.313,390.072 485.5,388.5 Z M 476.5,402.5 C 476.5,403.167 476.5,403.833 476.5,404.5C 475.833,405.833 474.833,406.833 473.5,407.5C 473.75,405.326 474.75,403.659 476.5,402.5 Z M 173.5,403.5 C 174.906,403.973 175.573,404.973 175.5,406.5C 174.5,406.167 173.833,405.5 173.5,404.5C 173.5,404.167 173.5,403.833 173.5,403.5 Z M 175.5,407.5 C 178.833,408.833 181.167,411.167 182.5,414.5C 181.761,414.631 181.094,414.464 180.5,414C 178.946,411.713 177.279,409.546 175.5,407.5 Z M 471.5,409.5 C 470.92,411.749 469.587,413.415 467.5,414.5C 468.08,412.251 469.413,410.585 471.5,409.5 Z M 183.5,415.5 C 186.089,416.419 188.089,418.086 189.5,420.5C 186.268,420.228 184.268,418.562 183.5,415.5 Z M 466.5,415.5 C 466.5,416.167 466.5,416.833 466.5,417.5C 465.833,417.5 465.167,417.5 464.5,417.5C 464.833,416.5 465.5,415.833 466.5,415.5 Z M 464.5,417.5 C 462.853,419.326 460.853,420.66 458.5,421.5C 459.802,419.178 461.802,417.845 464.5,417.5 Z M 189.5,420.5 C 191.749,421.08 193.415,422.413 194.5,424.5C 192.251,423.92 190.585,422.587 189.5,420.5 Z M 458.5,421.5 C 458.5,422.167 458.5,422.833 458.5,423.5C 455.386,425.391 452.052,426.724 448.5,427.5C 451.798,425.515 455.131,423.515 458.5,421.5 Z M 194.5,424.5 C 197.481,424.182 199.815,425.182 201.5,427.5C 199.297,427.396 197.297,426.73 195.5,425.5C 194.833,425.5 194.5,425.167 194.5,424.5 Z M 201.5,427.5 C 203.565,427.953 205.232,428.953 206.5,430.5C 204.784,430.371 203.117,430.038 201.5,429.5C 201.5,428.833 201.5,428.167 201.5,427.5 Z M 448.5,427.5 C 446.74,429.559 444.406,430.892 441.5,431.5C 439.246,432.315 436.913,432.981 434.5,433.5C 433.287,433.747 432.62,434.414 432.5,435.5C 426.204,436.494 419.87,437.16 413.5,437.5C 406.535,438.341 399.535,438.674 392.5,438.5C 385.167,438.5 377.833,438.5 370.5,438.5C 339.167,438.5 307.833,438.5 276.5,438.5C 269.833,438.5 263.167,438.5 256.5,438.5C 249.465,438.674 242.465,438.341 235.5,437.5C 230.277,437.324 225.11,436.657 220,435.5C 218.624,435.316 217.791,434.649 217.5,433.5C 221.832,434.266 226.166,435.1 230.5,436C 293.167,437.984 355.834,437.984 418.5,436C 428.802,434.092 438.802,431.259 448.5,427.5 Z M 206.5,430.5 C 210.534,430.517 214.201,431.517 217.5,433.5C 213.466,433.483 209.799,432.483 206.5,430.5 Z"/></g>
<g><path style="opacity:0.443" fill="#82c5e1" d="M 165.5,386.5 C 166.768,388.905 167.435,391.572 167.5,394.5C 166.687,392.739 165.687,391.072 164.5,389.5C 164.557,388.391 164.89,387.391 165.5,386.5 Z"/></g>
<g><path style="opacity:1" fill="#25dcd3" d="M 163.5,390.5 C 161.87,400.759 161.204,411.092 161.5,421.5C 160.672,415.681 160.172,409.681 160,403.5C 159.501,408.155 159.334,412.821 159.5,417.5C 154.489,417.666 149.489,417.499 144.5,417C 143.536,415.275 142.869,413.441 142.5,411.5C 141.434,409.299 140.767,406.965 140.5,404.5C 139.5,404.5 138.5,404.5 137.5,404.5C 136.372,399.781 135.038,395.114 133.5,390.5C 142.654,390.406 151.987,390.406 161.5,390.5C 161.592,383.992 162.258,383.992 163.5,390.5 Z"/></g>
<g><path style="opacity:0.016" fill="#8ecce4" d="M 168.5,396.5 C 170.074,397.984 171.407,399.651 172.5,401.5C 172.328,402.492 172.662,403.158 173.5,403.5C 173.5,403.833 173.5,404.167 173.5,404.5C 170.862,402.582 169.195,399.915 168.5,396.5 Z"/></g>
<g><path style="opacity:1" fill="#2eded4" d="M 516.5,393.5 C 514.193,401.431 511.859,409.431 509.5,417.5C 507.058,419.121 505.725,421.454 505.5,424.5C 504.326,425.514 503.66,426.847 503.5,428.5C 502.833,428.5 502.5,428.833 502.5,429.5C 502.167,429.5 501.833,429.5 501.5,429.5C 500.392,427.305 500.559,425.305 502,423.5C 502.667,426.167 503.333,426.167 504,423.5C 504.495,421.527 504.662,419.527 504.5,417.5C 499.833,417.5 495.167,417.5 490.5,417.5C 490.665,414.482 490.498,411.482 490,408.5C 489.826,413.351 489.326,418.018 488.5,422.5C 488.666,414.826 488.5,407.159 488,399.5C 487.809,397.292 487.309,395.292 486.5,393.5C 486.5,393.167 486.5,392.833 486.5,392.5C 486.338,390.473 486.505,388.473 487,386.5C 487.5,387.5 488,388.5 488.5,389.5C 497.482,390.332 506.482,390.832 515.5,391C 516.252,391.671 516.586,392.504 516.5,393.5 Z"/></g>
<g><path style="opacity:0.122" fill="#a1d6ea" d="M 477.5,401.5 C 477.833,401.5 478.167,401.5 478.5,401.5C 478.573,403.027 477.906,404.027 476.5,404.5C 476.5,403.833 476.5,403.167 476.5,402.5C 477.167,402.5 477.5,402.167 477.5,401.5 Z"/></g>
<g><path style="opacity:0.93" fill="#56e3db" d="M 129.5,375.5 C 130.693,375.97 131.36,376.97 131.5,378.5C 132.169,382.513 132.836,386.513 133.5,390.5C 135.038,395.114 136.372,399.781 137.5,404.5C 138.5,404.5 139.5,404.5 140.5,404.5C 140.767,406.965 141.434,409.299 142.5,411.5C 141.903,411.735 141.57,412.235 141.5,413C 142.479,415.433 143.145,417.933 143.5,420.5C 142.833,419.833 142.167,419.167 141.5,418.5C 141.206,415.246 139.873,412.579 137.5,410.5C 137.768,408.901 137.434,407.568 136.5,406.5C 133.072,396.452 130.739,386.119 129.5,375.5 Z"/></g>
<g><path style="opacity:1" fill="#1cb6ce" d="M 486.5,393.5 C 487.309,395.292 487.809,397.292 488,399.5C 488.5,407.159 488.666,414.826 488.5,422.5C 488.749,426.458 488.082,430.124 486.5,433.5C 487.731,420.175 487.731,406.842 486.5,393.5 Z"/></g>
<g><path style="opacity:1" fill="#2fe4d5" d="M 161.5,421.5 C 161.616,424.86 161.949,428.193 162.5,431.5C 162.41,434.152 163.076,436.485 164.5,438.5C 167.668,448.503 171.668,458.17 176.5,467.5C 175.5,467.5 174.5,467.5 173.5,467.5C 173.027,466.094 172.027,465.427 170.5,465.5C 170.5,465.167 170.5,464.833 170.5,464.5C 170.5,462.5 169.5,461.5 167.5,461.5C 167.672,460.508 167.338,459.842 166.5,459.5C 166.33,456.796 164.997,455.129 162.5,454.5C 162.672,453.508 162.338,452.842 161.5,452.5C 160.149,448.458 157.815,445.125 154.5,442.5C 154.509,440.692 154.009,439.025 153,437.5C 151.147,435.097 149.314,432.764 147.5,430.5C 147.401,427.414 146.068,425.081 143.5,423.5C 143.5,422.5 143.5,421.5 143.5,420.5C 143.145,417.933 142.479,415.433 141.5,413C 141.57,412.235 141.903,411.735 142.5,411.5C 142.869,413.441 143.536,415.275 144.5,417C 149.489,417.499 154.489,417.666 159.5,417.5C 159.334,412.821 159.501,408.155 160,403.5C 160.172,409.681 160.672,415.681 161.5,421.5 Z"/></g>
<g><path style="opacity:1" fill="#32e4d5" d="M 501.5,429.5 C 501.5,429.833 501.5,430.167 501.5,430.5C 500.069,431.78 499.402,433.447 499.5,435.5C 498.833,435.5 498.5,435.833 498.5,436.5C 496.75,437.659 495.75,439.326 495.5,441.5C 494.11,442.899 493.11,444.566 492.5,446.5C 491.5,446.833 490.833,447.5 490.5,448.5C 489.026,449.436 488.026,450.77 487.5,452.5C 486.662,452.842 486.328,453.508 486.5,454.5C 485.512,455.795 484.512,457.128 483.5,458.5C 482.662,458.842 482.328,459.508 482.5,460.5C 481.094,460.973 480.427,461.973 480.5,463.5C 479.5,463.833 478.833,464.5 478.5,465.5C 476.178,466.802 474.845,468.802 474.5,471.5C 473.391,471.557 472.391,471.89 471.5,472.5C 471.5,471.833 471.5,471.167 471.5,470.5C 477.893,458.717 482.893,446.384 486.5,433.5C 488.082,430.124 488.749,426.458 488.5,422.5C 489.326,418.018 489.826,413.351 490,408.5C 490.498,411.482 490.665,414.482 490.5,417.5C 495.167,417.5 499.833,417.5 504.5,417.5C 504.662,419.527 504.495,421.527 504,423.5C 503.333,426.167 502.667,426.167 502,423.5C 500.559,425.305 500.392,427.305 501.5,429.5 Z"/></g>
<g><path style="opacity:0.231" fill="#5fb7da" d="M 464.5,417.5 C 465.167,417.5 465.833,417.5 466.5,417.5C 464.588,420.461 461.921,422.461 458.5,423.5C 458.5,422.833 458.5,422.167 458.5,421.5C 460.853,420.66 462.853,419.326 464.5,417.5 Z"/></g>
<g><path style="opacity:0.024" fill="#6cbddd" d="M 195.5,425.5 C 197.297,426.73 199.297,427.396 201.5,427.5C 201.5,428.167 201.5,428.833 201.5,429.5C 198.733,429.13 196.733,427.796 195.5,425.5 Z"/></g>
<g><path style="opacity:0.322" fill="#5cb5d9" d="M 441.5,431.5 C 439.236,434.126 436.236,435.459 432.5,435.5C 432.62,434.414 433.287,433.747 434.5,433.5C 436.913,432.981 439.246,432.315 441.5,431.5 Z"/></g>
<g><path style="opacity:1" fill="#21c7d0" d="M 162.5,431.5 C 163.924,433.515 164.59,435.848 164.5,438.5C 163.076,436.485 162.41,434.152 162.5,431.5 Z"/></g>
<g><path style="opacity:0.157" fill="#a7d8eb" d="M 235.5,437.5 C 242.465,438.341 249.465,438.674 256.5,438.5C 253.183,439.165 249.683,439.499 246,439.5C 242.098,439.488 238.598,438.821 235.5,437.5 Z"/></g>
<g><path style="opacity:0.075" fill="#43add6" d="M 276.5,438.5 C 307.833,438.5 339.167,438.5 370.5,438.5C 372.969,439.317 375.635,439.817 378.5,440C 341.167,440.667 303.833,440.667 266.5,440C 270.025,439.821 273.359,439.321 276.5,438.5 Z"/></g>
<g><path style="opacity:0.156" fill="#a8d9eb" d="M 413.5,437.5 C 413.389,438.117 413.056,438.617 412.5,439C 405.654,439.821 398.987,439.654 392.5,438.5C 399.535,438.674 406.535,438.341 413.5,437.5 Z"/></g>
<g><path style="opacity:0.455" fill="#59e0da" d="M 173.5,467.5 C 174.5,467.5 175.5,467.5 176.5,467.5C 179.083,470.997 181.416,474.664 183.5,478.5C 182.391,478.443 181.391,478.11 180.5,477.5C 178.669,473.846 176.336,470.513 173.5,467.5 Z"/></g>
<g><path style="opacity:0.129" fill="#4ed4d7" d="M 471.5,470.5 C 471.5,471.167 471.5,471.833 471.5,472.5C 470.559,474.05 469.893,475.716 469.5,477.5C 468.833,477.5 468.5,477.833 468.5,478.5C 467.833,478.5 467.167,478.5 466.5,478.5C 467.669,475.489 469.336,472.822 471.5,470.5 Z"/></g>
<g><path style="opacity:0.318" fill="#9fd3e8" d="M 185.5,482.5 C 185.5,482.167 185.5,481.833 185.5,481.5C 187.404,481.738 188.738,482.738 189.5,484.5C 188.833,484.5 188.167,484.5 187.5,484.5C 187.167,483.5 186.5,482.833 185.5,482.5 Z"/></g>
<g><path style="opacity:0.192" fill="#92cde6" d="M 206.5,495.5 C 206.5,495.167 206.5,494.833 206.5,494.5C 208.027,494.427 209.027,495.094 209.5,496.5C 208.391,496.443 207.391,496.11 206.5,495.5 Z"/></g>
<g><path style="opacity:0.841" fill="#69b8db" d="M 432.5,498.5 C 431.5,499.167 430.5,499.833 429.5,500.5C 428.609,501.11 427.609,501.443 426.5,501.5C 426.5,500.5 426.5,499.5 426.5,498.5C 428.5,498.5 430.5,498.5 432.5,498.5 Z"/></g>
<g><path style="opacity:0.651" fill="#68b7da" d="M 228.5,502.5 C 233.086,501.108 237.42,501.775 241.5,504.5C 237.147,503.941 232.814,503.275 228.5,502.5 Z"/></g>
<g><path style="opacity:0.059" fill="#89c8e3" d="M 425.5,501.5 C 424.167,501.833 422.833,502.167 421.5,502.5C 421.62,501.414 422.287,500.747 423.5,500.5C 424.416,500.543 425.083,500.876 425.5,501.5 Z"/></g>
<g><path style="opacity:0.995" fill="#008fc6" d="M 412.5,502.5 C 357.512,503.461 302.512,503.795 247.5,503.5C 300.675,502.812 354.008,502.145 407.5,501.5C 409.369,501.507 411.036,501.84 412.5,502.5 Z"/></g>
<g><path style="opacity:0.647" fill="#7ec2e0" d="M 412.5,502.5 C 412.5,502.833 412.5,503.167 412.5,503.5C 407.916,504.277 403.25,504.777 398.5,505C 348.138,505.82 297.805,505.653 247.5,504.5C 247.5,504.167 247.5,503.833 247.5,503.5C 302.512,503.795 357.512,503.461 412.5,502.5 Z"/></g>
</svg>
